<?xml version="1.0" encoding="utf-8"?>
<!-- Generator: Adobe Illustrator 23.0.3, SVG Export Plug-In . SVG Version: 6.00 Build 0)  -->
<svg version="1.1" xmlns="http://www.w3.org/2000/svg" xmlns:xlink="http://www.w3.org/1999/xlink" x="0px" y="0px"
	 viewBox="0 0 500 500" style="enable-background:new 0 0 500 500;" xml:space="preserve">
<style type="text/css">
	.st0{display:none;}
	.st1{display:inline;fill:#FFFFFF;}
	.st2{fill:#E3E5E8;}
	.st3{fill:#D4D5D6;}
	.st4{fill:#C6C6C6;}
	.st5{fill:#3C3C48;}
	.st6{fill:#5727C6;}
	.st7{fill:#6E3FEB;}
	.st8{fill:#FAB98A;}
	.st9{fill:#FFFFFF;}
	.st10{fill:#1A100E;}
	.st11{fill:#F9907E;}
	.st12{fill:#E4765D;}
	.st13{fill:#905EFF;}
	.st14{fill:#4F03C2;}
</style>
<g id="BACKGROUND" class="st0">
	<rect class="st1" width="500" height="500"/>
</g>
<g id="OBJECTS">
	<g>
		<g>
			<path class="st2" d="M275.7,104.1l-5.5-3l-2.8,5.2c-1.5-0.4-3-0.7-4.5-0.6l-1.6-5.5l-6,1.8l1.6,5.3c-1.7,0.9-3.2,2.1-4.4,3.5
				l-5.2-2.8l-3,5.5l5.4,2.9c-0.3,1.2-0.5,2.5-0.4,3.8l-5.5,1.6l1.8,6l5.3-1.6c0.9,1.7,2.1,3.2,3.5,4.4l-2.5,4.5l5.5,3l2.5-4.7
				c1.6,0.4,3.2,0.5,4.9,0.4l1.6,5.3l6-1.8l-1.6-5.5c1.5-1,2.9-2.2,3.9-3.6l5.2,2.8l3-5.5l-5.7-3.1c0.3-1.3,0.3-2.7,0.2-4.1l5.3-1.6
				l-1.8-6l-5.5,1.6c-0.7-1.1-1.5-2.1-2.4-3L275.7,104.1z M268.8,118.1c0.9,3.1-0.8,6.3-3.9,7.2c-3.1,0.9-6.3-0.8-7.2-3.9
				c-0.9-3.1,0.8-6.3,3.9-7.2C264.6,113.4,267.8,115.1,268.8,118.1z"/>
			<path class="st2" d="M386,160.2l-3-1.6l-1.5,2.8c-0.8-0.2-1.6-0.4-2.5-0.3l-0.9-3l-3.3,1l0.9,2.9c-0.9,0.5-1.8,1.1-2.4,1.9
				l-2.8-1.5l-1.6,3l2.9,1.6c-0.2,0.7-0.2,1.4-0.2,2.1l-3,0.9l1,3.3l2.9-0.9c0.5,0.9,1.1,1.8,1.9,2.4l-1.3,2.5l3,1.6l1.4-2.6
				c0.9,0.2,1.8,0.3,2.7,0.2l0.9,2.9l3.3-1l-0.9-3c0.8-0.5,1.6-1.2,2.1-2l2.9,1.5l1.6-3l-3.1-1.7c0.1-0.7,0.2-1.5,0.1-2.3l2.9-0.9
				l-1-3.3l-3,0.9c-0.4-0.6-0.8-1.1-1.3-1.6L386,160.2z M382.2,167.9c0.5,1.7-0.5,3.4-2.1,3.9c-1.7,0.5-3.4-0.5-3.9-2.1
				c-0.5-1.7,0.5-3.4,2.1-3.9C379.9,165.3,381.7,166.3,382.2,167.9z"/>
		</g>
		<g>
			<path class="st2" d="M131.4,168c1-0.7,2-1.6,2.8-2.6l5.3,2.3l2.6-5.8l-5-2.2c0.3-1.4,0.4-2.8,0.4-4.1l6-2.3l-2.3-5.9l-5.5,2.1
				c-0.9-1.5-2-2.9-3.4-4.1l2.3-5.3l-5.8-2.6l-2.2,5c-1.6-0.4-3.3-0.5-4.9-0.3l-1.9-5l-5.9,2.3l1.8,4.8c-1.6,1-3,2.3-4.1,3.9l-5-2.2
				l-2.6,5.8l5.3,2.3c-0.2,1.3-0.2,2.6-0.1,3.8l-5.7,2.2l2.3,5.9l5.5-2.1c1,1.6,2.3,3,3.9,4.1l-2.2,5l5.8,2.6l2.3-5.3
				c1.5,0.2,3.1,0.2,4.6,0l2.1,5.5l5.9-2.3L131.4,168z M120.9,161.7c-2.9-1.3-4.2-4.7-2.9-7.6c1.3-2.9,4.7-4.2,7.6-2.9
				c2.9,1.3,4.2,4.7,2.9,7.6S123.8,163,120.9,161.7z"/>
			<path class="st2" d="M36.8,195.6c0.6-0.4,1.1-0.9,1.5-1.4l2.9,1.3l1.4-3.1l-2.7-1.2c0.2-0.8,0.2-1.5,0.2-2.3l3.3-1.3l-1.2-3.2
				l-3,1.2c-0.5-0.8-1.1-1.6-1.9-2.2l1.3-2.9l-3.1-1.4l-1.2,2.7c-0.9-0.2-1.8-0.3-2.7-0.2l-1-2.7l-3.2,1.2l1,2.6
				c-0.9,0.5-1.6,1.3-2.2,2.1l-2.7-1.2l-1.4,3.1l2.9,1.3c-0.1,0.7-0.1,1.4,0,2.1l-3.1,1.2l1.2,3.2l3-1.2c0.5,0.9,1.3,1.6,2.1,2.2
				l-1.2,2.7l3.1,1.4l1.3-2.9c0.8,0.1,1.7,0.1,2.5,0l1.2,3l3.2-1.2L36.8,195.6z M31,192.2c-1.6-0.7-2.3-2.6-1.6-4.2
				c0.7-1.6,2.6-2.3,4.2-1.6c1.6,0.7,2.3,2.6,1.6,4.2C34.5,192.2,32.6,192.9,31,192.2z"/>
		</g>
		<path class="st2" d="M426.9,106.8c0,1.2-0.5,2.3-1.3,3.1c-0.8,0.8-1.9,1.3-3.1,1.3h-94.1c-2.4,0-4.4-2-4.4-4.4
			c0-1.2,0.5-2.3,1.3-3.1c0.8-0.8,1.9-1.3,3.1-1.3h4.4c1.8-4.1,5.8-6.9,10.5-6.9c3.2,0,6,1.3,8.1,3.4c2.8-4.7,7.9-7.9,13.7-7.9
			c1.6,0,3.2,0.2,4.6,0.7c3.1-5.8,9.1-9.7,16.1-9.7c8.4,0,15.4,5.7,17.5,13.3c1.5-0.8,3.3-1.2,5.1-1.2c5.2,0,9.6,3.5,11,8.3h2.8
			C424.9,102.4,426.9,104.4,426.9,106.8z"/>
		<path class="st2" d="M207.8,101.2c0,1.2-0.5,2.3-1.3,3.1c-0.8,0.8-1.9,1.3-3.1,1.3h-94.1c-2.4,0-4.4-2-4.4-4.4
			c0-1.2,0.5-2.3,1.3-3.1c0.8-0.8,1.9-1.3,3.1-1.3h4.4c1.8-4.1,5.8-6.9,10.5-6.9c3.2,0,6,1.3,8.1,3.4c2.8-4.7,7.9-7.9,13.7-7.9
			c1.6,0,3.2,0.2,4.6,0.7c3.1-5.8,9.1-9.7,16.1-9.7c8.4,0,15.4,5.7,17.5,13.3c1.5-0.8,3.3-1.2,5.1-1.2c5.2,0,9.6,3.5,11,8.3h2.8
			C205.8,96.8,207.8,98.8,207.8,101.2z"/>
		<g>
			<path class="st3" d="M384,226.9c0.2,0.3,0.6,0.4,0.9,0.4c0.2,0,0.5-0.1,0.7-0.2c0.5-0.4,0.6-1.1,0.2-1.6c-1.1-1.5-2.3-3-3.5-4.4
				c-0.4-0.5-1.1-0.6-1.6-0.2c-0.5,0.4-0.6,1.1-0.2,1.6C381.7,224,382.9,225.5,384,226.9z"/>
			<path class="st3" d="M361.8,203.1c0.2,0.2,0.5,0.3,0.8,0.3c0.3,0,0.6-0.1,0.9-0.4c0.4-0.5,0.4-1.2-0.1-1.6
				c-1.4-1.2-2.8-2.5-4.3-3.7c-0.5-0.4-1.2-0.3-1.6,0.1c-0.4,0.5-0.3,1.2,0.1,1.6C359,200.6,360.5,201.8,361.8,203.1z"/>
			<path class="st3" d="M106.2,434.9c0.5-0.4,0.6-1.1,0.3-1.6c-1.1-1.5-2.2-3-3.2-4.6c-0.4-0.5-1.1-0.7-1.6-0.3
				c-0.5,0.4-0.7,1.1-0.3,1.6c1,1.5,2.1,3.1,3.2,4.6c0.1,0.1,0.2,0.2,0.4,0.3h1.1C106.1,434.9,106.1,434.9,106.2,434.9z"/>
			<path class="st3" d="M369.7,210.6c0.2,0.2,0.5,0.3,0.8,0.3c0.3,0,0.6-0.1,0.8-0.3c0.5-0.4,0.5-1.2,0-1.6c-1.3-1.3-2.7-2.7-4-3.9
				c-0.5-0.4-1.2-0.4-1.6,0c-0.4,0.5-0.4,1.2,0,1.6C367.1,207.9,368.4,209.2,369.7,210.6z"/>
			<path class="st3" d="M396.1,245c0.2,0.4,0.6,0.6,1,0.6c0.2,0,0.4-0.1,0.6-0.2c0.5-0.3,0.7-1,0.4-1.6c-0.9-1.6-1.9-3.2-2.9-4.8
				c-0.3-0.5-1-0.7-1.6-0.4c-0.5,0.3-0.7,1-0.4,1.6C394.2,241.8,395.2,243.4,396.1,245z"/>
			<path class="st3" d="M389.8,431.1c0.2,0.1,0.4,0.2,0.6,0.2c0.4,0,0.7-0.2,0.9-0.5c1.1-1.5,2.1-3.1,3.1-4.7
				c0.3-0.5,0.2-1.2-0.4-1.6c-0.5-0.3-1.2-0.2-1.6,0.4c-1,1.6-2,3.1-3.1,4.6C389.1,430,389.3,430.7,389.8,431.1z"/>
			<path class="st3" d="M388.4,435c0.2-0.5,0-1-0.4-1.4c-0.5-0.4-1.2-0.3-1.6,0.3c-0.3,0.4-0.5,0.7-0.8,1.1H388.4z"/>
			<path class="st3" d="M390.3,235.8c0.2,0.3,0.6,0.5,1,0.5c0.2,0,0.4-0.1,0.6-0.2c0.5-0.4,0.7-1.1,0.3-1.6c-1-1.5-2.1-3.1-3.2-4.6
				c-0.4-0.5-1.1-0.6-1.6-0.3c-0.5,0.4-0.6,1.1-0.3,1.6C388.2,232.7,389.3,234.2,390.3,235.8z"/>
			<path class="st3" d="M377.1,218.5c0.2,0.3,0.5,0.4,0.9,0.4c0.3,0,0.5-0.1,0.8-0.3c0.5-0.4,0.5-1.1,0.1-1.6
				c-1.2-1.4-2.5-2.8-3.8-4.2c-0.4-0.5-1.2-0.5-1.6-0.1c-0.5,0.4-0.5,1.2-0.1,1.6C374.6,215.7,375.9,217.1,377.1,218.5z"/>
			<path class="st3" d="M300.9,167.8c1.8,0.6,3.5,1.2,5.3,1.8c0.1,0,0.3,0.1,0.4,0.1c0.5,0,0.9-0.3,1.1-0.8c0.2-0.6-0.1-1.3-0.7-1.5
				c-1.8-0.6-3.6-1.3-5.3-1.9c-0.6-0.2-1.2,0.1-1.4,0.7C299.9,166.9,300.3,167.6,300.9,167.8z"/>
			<path class="st3" d="M311.1,171.5c1.7,0.7,3.4,1.4,5.1,2.2c0.2,0.1,0.3,0.1,0.5,0.1c0.4,0,0.9-0.3,1-0.7c0.3-0.6,0-1.3-0.6-1.5
				c-1.7-0.8-3.5-1.5-5.2-2.2c-0.6-0.2-1.3,0-1.5,0.6C310.2,170.6,310.5,171.3,311.1,171.5z"/>
			<path class="st3" d="M258.3,159.5c1.8,0.1,3.7,0.3,5.5,0.5c0,0,0.1,0,0.1,0c0.6,0,1.1-0.4,1.1-1c0.1-0.6-0.4-1.2-1-1.3
				c-1.9-0.2-3.8-0.3-5.6-0.5c-0.6,0-1.2,0.4-1.2,1.1C257.2,158.9,257.6,159.5,258.3,159.5z"/>
			<path class="st3" d="M349.1,192.7c1.5,1.1,3,2.2,4.4,3.4c0.2,0.2,0.5,0.2,0.7,0.2c0.3,0,0.7-0.1,0.9-0.4c0.4-0.5,0.3-1.2-0.2-1.6
				c-1.5-1.2-3-2.3-4.5-3.4c-0.5-0.4-1.2-0.3-1.6,0.2C348.4,191.6,348.6,192.3,349.1,192.7z"/>
			<path class="st3" d="M279.8,162.3c1.8,0.4,3.6,0.7,5.4,1.1c0.1,0,0.2,0,0.3,0c0.5,0,1-0.4,1.1-0.9c0.1-0.6-0.2-1.2-0.9-1.4
				c-1.8-0.4-3.7-0.8-5.5-1.2c-0.6-0.1-1.2,0.3-1.3,0.9C278.8,161.6,279.2,162.2,279.8,162.3z"/>
			<path class="st3" d="M340.1,186.5c1.6,1,3.1,2,4.6,3.1c0.2,0.1,0.4,0.2,0.6,0.2c0.4,0,0.7-0.2,0.9-0.5c0.4-0.5,0.2-1.2-0.3-1.6
				c-1.5-1.1-3.1-2.1-4.7-3.1c-0.5-0.3-1.2-0.2-1.6,0.3C339.4,185.5,339.6,186.2,340.1,186.5z"/>
			<path class="st3" d="M321.1,175.9c1.7,0.8,3.3,1.6,5,2.5c0.2,0.1,0.3,0.1,0.5,0.1c0.4,0,0.8-0.2,1-0.6c0.3-0.6,0.1-1.3-0.5-1.5
				c-1.7-0.9-3.4-1.7-5.1-2.5c-0.6-0.3-1.3,0-1.5,0.5C320.3,175,320.5,175.6,321.1,175.9z"/>
			<path class="st3" d="M330.8,180.9c1.6,0.9,3.2,1.8,4.8,2.8c0.2,0.1,0.4,0.2,0.6,0.2c0.4,0,0.8-0.2,1-0.6c0.3-0.5,0.2-1.2-0.4-1.6
				c-1.6-1-3.3-1.9-4.9-2.8c-0.6-0.3-1.3-0.1-1.6,0.4C330,179.9,330.2,180.6,330.8,180.9z"/>
			<path class="st3" d="M290.4,164.7c1.8,0.5,3.6,1,5.4,1.5c0.1,0,0.2,0,0.3,0c0.5,0,1-0.3,1.1-0.8c0.2-0.6-0.2-1.2-0.8-1.4
				c-1.8-0.5-3.6-1-5.4-1.5c-0.6-0.2-1.2,0.2-1.4,0.8C289.4,163.9,289.8,164.5,290.4,164.7z"/>
			<path class="st3" d="M407.4,395.8c-0.7,1.7-1.4,3.5-2.1,5.2c-0.3,0.6,0,1.3,0.6,1.5c0.1,0.1,0.3,0.1,0.5,0.1
				c0.4,0,0.9-0.3,1.1-0.7c0.7-1.7,1.5-3.5,2.2-5.2c0.2-0.6-0.1-1.3-0.6-1.5C408.3,394.9,407.7,395.2,407.4,395.8z"/>
			<path class="st3" d="M411.1,385.5c-0.6,1.8-1.2,3.5-1.8,5.3c-0.2,0.6,0.1,1.3,0.7,1.5c0.1,0,0.3,0.1,0.4,0.1
				c0.5,0,0.9-0.3,1.1-0.8c0.6-1.8,1.3-3.6,1.8-5.4c0.2-0.6-0.1-1.2-0.7-1.4C412,384.6,411.3,384.9,411.1,385.5z"/>
			<path class="st3" d="M404.6,405.3c-0.6-0.3-1.3,0-1.5,0.5c-0.8,1.7-1.6,3.4-2.5,5c-0.3,0.6-0.1,1.3,0.5,1.5
				c0.2,0.1,0.3,0.1,0.5,0.1c0.4,0,0.8-0.2,1-0.6c0.9-1.7,1.7-3.4,2.5-5.1C405.4,406.2,405.2,405.5,404.6,405.3z"/>
			<path class="st3" d="M420.7,330.9c-0.6,0-1.1,0.5-1.1,1.1c0,1.8,0,3.7-0.1,5.6c0,0.6,0.5,1.2,1.1,1.2c0,0,0,0,0,0
				c0.6,0,1.1-0.5,1.1-1.1c0.1-1.9,0.1-3.8,0.1-5.6C421.9,331.4,421.3,330.9,420.7,330.9z"/>
			<path class="st3" d="M414.2,375.1c-0.5,1.8-1,3.6-1.5,5.4c-0.2,0.6,0.2,1.2,0.8,1.4c0.1,0,0.2,0,0.3,0c0.5,0,1-0.3,1.1-0.8
				c0.5-1.8,1-3.6,1.5-5.4c0.2-0.6-0.2-1.2-0.8-1.4C414.9,374.1,414.3,374.5,414.2,375.1z"/>
			<path class="st3" d="M395.4,420.3c-0.3,0.5-0.1,1.2,0.4,1.6c0.2,0.1,0.4,0.2,0.6,0.2c0.4,0,0.8-0.2,1-0.6c1-1.6,1.9-3.3,2.8-4.9
				c0.3-0.6,0.1-1.3-0.4-1.6c-0.6-0.3-1.3-0.1-1.6,0.4C397.2,417.1,396.3,418.7,395.4,420.3z"/>
			<path class="st3" d="M419.9,349.7c0.6,0,1.1-0.4,1.1-1c0.2-1.9,0.3-3.8,0.4-5.6c0-0.6-0.4-1.2-1.1-1.2c-0.6,0-1.2,0.4-1.2,1.1
				c-0.1,1.8-0.3,3.7-0.4,5.5c-0.1,0.6,0.4,1.2,1,1.2C419.9,349.7,419.9,349.7,419.9,349.7z"/>
			<path class="st3" d="M416.5,364.5c-0.3,1.8-0.7,3.6-1.1,5.4c-0.1,0.6,0.3,1.2,0.9,1.4c0.1,0,0.2,0,0.3,0c0.5,0,1-0.4,1.1-0.9
				c0.4-1.8,0.8-3.7,1.1-5.5c0.1-0.6-0.3-1.2-0.9-1.3C417.2,363.4,416.6,363.9,416.5,364.5z"/>
			<path class="st3" d="M418.2,353.7c-0.2,1.8-0.5,3.7-0.8,5.5c-0.1,0.6,0.3,1.2,1,1.3c0.1,0,0.1,0,0.2,0c0.6,0,1-0.4,1.1-1
				c0.3-1.8,0.6-3.7,0.8-5.6c0.1-0.6-0.4-1.2-1-1.3C418.9,352.7,418.3,353.1,418.2,353.7z"/>
			<path class="st3" d="M405.8,264.3c0.2,0.4,0.6,0.7,1.1,0.7c0.1,0,0.3,0,0.4-0.1c0.6-0.2,0.9-0.9,0.6-1.5
				c-0.7-1.7-1.5-3.4-2.3-5.1c-0.3-0.6-0.9-0.8-1.5-0.6c-0.6,0.3-0.8,0.9-0.6,1.5C404.3,260.9,405.1,262.6,405.8,264.3z"/>
			<path class="st3" d="M407.8,269.2c0.7,1.7,1.3,3.5,1.9,5.2c0.2,0.5,0.6,0.8,1.1,0.8c0.1,0,0.3,0,0.4-0.1c0.6-0.2,0.9-0.9,0.7-1.5
				c-0.6-1.8-1.3-3.5-2-5.3c-0.2-0.6-0.9-0.9-1.5-0.7C407.9,268,407.6,268.7,407.8,269.2z"/>
			<path class="st3" d="M401.3,254.5c0.2,0.4,0.6,0.6,1,0.6c0.2,0,0.3,0,0.5-0.1c0.6-0.3,0.8-1,0.5-1.5c-0.8-1.7-1.7-3.3-2.6-5
				c-0.3-0.6-1-0.8-1.6-0.5c-0.6,0.3-0.8,1-0.5,1.6C399.6,251.2,400.4,252.9,401.3,254.5z"/>
			<path class="st3" d="M411.4,279.5c0.6,1.8,1.1,3.6,1.6,5.3c0.1,0.5,0.6,0.8,1.1,0.8c0.1,0,0.2,0,0.3,0c0.6-0.2,1-0.8,0.8-1.4
				c-0.5-1.8-1.1-3.6-1.6-5.4c-0.2-0.6-0.8-0.9-1.4-0.7C411.6,278.2,411.3,278.9,411.4,279.5z"/>
			<path class="st3" d="M414.4,290c0.4,1.8,0.9,3.6,1.3,5.4c0.1,0.5,0.6,0.9,1.1,0.9c0.1,0,0.2,0,0.2,0c0.6-0.1,1-0.7,0.9-1.4
				c-0.4-1.8-0.8-3.7-1.3-5.5c-0.2-0.6-0.8-1-1.4-0.8C414.6,288.7,414.3,289.3,414.4,290z"/>
			<path class="st3" d="M419.3,310.1c-0.6,0.1-1.1,0.6-1,1.3c0.2,1.8,0.4,3.7,0.6,5.5c0.1,0.6,0.6,1,1.1,1c0,0,0.1,0,0.1,0
				c0.6-0.1,1.1-0.6,1-1.2c-0.2-1.9-0.4-3.8-0.6-5.6C420.5,310.4,420,310,419.3,310.1z"/>
			<path class="st3" d="M419.3,322.2c0.1,1.8,0.2,3.7,0.2,5.6c0,0.6,0.5,1.1,1.1,1.1c0,0,0,0,0,0c0.6,0,1.1-0.5,1.1-1.2
				c0-1.9-0.1-3.8-0.2-5.6c0-0.6-0.6-1.1-1.2-1.1C419.7,321,419.3,321.5,419.3,322.2z"/>
			<path class="st3" d="M417.6,299.3c-0.6,0.1-1,0.7-0.9,1.3c0.3,1.8,0.6,3.7,0.9,5.5c0.1,0.6,0.6,1,1.1,1c0.1,0,0.1,0,0.2,0
				c0.6-0.1,1.1-0.7,1-1.3c-0.3-1.9-0.6-3.7-0.9-5.6C418.9,299.5,418.3,299.1,417.6,299.3z"/>
			<path class="st3" d="M269.1,160.6c1.8,0.2,3.7,0.5,5.5,0.8c0.1,0,0.1,0,0.2,0c0.6,0,1-0.4,1.1-1c0.1-0.6-0.3-1.2-0.9-1.3
				c-1.8-0.3-3.7-0.6-5.6-0.8c-0.6-0.1-1.2,0.4-1.3,1C268,159.9,268.5,160.5,269.1,160.6z"/>
			<path class="st3" d="M73.8,310.8c0,0,0.1,0,0.1,0c0.6,0,1.1-0.4,1.1-1c0.2-1.8,0.5-3.7,0.8-5.5c0.1-0.6-0.3-1.2-0.9-1.3
				c-0.6-0.1-1.2,0.3-1.3,0.9c-0.3,1.8-0.6,3.7-0.8,5.6C72.8,310.2,73.2,310.8,73.8,310.8z"/>
			<path class="st3" d="M84.5,268.4c0.1,0.1,0.3,0.1,0.4,0.1c0.5,0,0.9-0.3,1.1-0.7c0.7-1.7,1.4-3.5,2.2-5.1c0.3-0.6,0-1.3-0.6-1.5
				c-0.6-0.3-1.3,0-1.5,0.6c-0.8,1.7-1.5,3.5-2.2,5.2C83.7,267.5,84,268.2,84.5,268.4z"/>
			<path class="st3" d="M72.9,321.7C72.9,321.7,72.9,321.7,72.9,321.7c0.7,0,1.2-0.5,1.2-1.1c0.1-1.8,0.3-3.7,0.4-5.5
				c0.1-0.6-0.4-1.2-1-1.3c-0.6-0.1-1.2,0.4-1.3,1c-0.2,1.9-0.3,3.8-0.5,5.6C71.8,321.1,72.2,321.7,72.9,321.7z"/>
			<path class="st3" d="M72.9,343.6c0.6,0,1.1-0.6,1.1-1.2c-0.1-1.8-0.2-3.7-0.2-5.6c0-0.6-0.6-1.1-1.2-1.1c-0.6,0-1.1,0.5-1.1,1.2
				c0.1,1.9,0.1,3.8,0.2,5.6C71.8,343.2,72.3,343.6,72.9,343.6C72.9,343.6,72.9,343.6,72.9,343.6z"/>
			<path class="st3" d="M77.8,289.3c0.1,0,0.2,0,0.3,0c0.5,0,1-0.3,1.1-0.9c0.5-1.8,1-3.6,1.5-5.4c0.2-0.6-0.2-1.2-0.8-1.4
				c-0.6-0.2-1.2,0.2-1.4,0.8c-0.5,1.8-1,3.6-1.5,5.4C76.9,288.5,77.2,289.2,77.8,289.3z"/>
			<path class="st3" d="M80.9,278.8c0.1,0,0.2,0.1,0.4,0.1c0.5,0,0.9-0.3,1.1-0.8c0.6-1.8,1.2-3.5,1.8-5.3c0.2-0.6-0.1-1.3-0.7-1.5
				c-0.6-0.2-1.3,0.1-1.5,0.7c-0.6,1.8-1.3,3.6-1.9,5.3C79.9,277.9,80.3,278.6,80.9,278.8z"/>
			<path class="st3" d="M75.5,300c0.1,0,0.1,0,0.2,0c0.5,0,1-0.4,1.1-0.9c0.3-1.8,0.7-3.6,1.1-5.4c0.1-0.6-0.2-1.2-0.9-1.4
				c-0.6-0.1-1.2,0.2-1.4,0.9c-0.4,1.8-0.8,3.7-1.2,5.5C74.5,299.3,74.9,299.9,75.5,300z"/>
			<path class="st3" d="M74,354.5c0.6-0.1,1.1-0.6,1-1.3c-0.2-1.8-0.4-3.7-0.6-5.5c-0.1-0.6-0.6-1.1-1.2-1c-0.6,0.1-1.1,0.6-1,1.2
				c0.2,1.9,0.4,3.8,0.6,5.6c0.1,0.6,0.6,1,1.1,1C73.9,354.5,74,354.5,74,354.5z"/>
			<path class="st3" d="M72.6,332.7L72.6,332.7c0.6,0,1.1-0.5,1.1-1.1c0-1.8,0-3.7,0.1-5.6c0-0.6-0.5-1.2-1.1-1.2
				c-0.6,0-1.2,0.5-1.2,1.1c-0.1,1.9-0.1,3.8-0.1,5.6C71.4,332.2,71.9,332.7,72.6,332.7z"/>
			<path class="st3" d="M98.2,243.3c0.3-0.5,0.1-1.2-0.4-1.6c-0.5-0.3-1.2-0.1-1.6,0.4c-1,1.6-1.9,3.3-2.8,4.9
				c-0.3,0.6-0.1,1.3,0.4,1.6c0.2,0.1,0.4,0.1,0.6,0.1c0.4,0,0.8-0.2,1-0.6C96.3,246.5,97.2,244.9,98.2,243.3z"/>
			<path class="st3" d="M75.7,365.3c0.6-0.1,1-0.7,0.9-1.3c-0.3-1.8-0.7-3.7-0.9-5.5c-0.1-0.6-0.7-1.1-1.3-1c-0.6,0.1-1.1,0.7-1,1.3
				c0.3,1.8,0.6,3.7,0.9,5.6c0.1,0.6,0.6,0.9,1.1,0.9C75.6,365.3,75.7,365.3,75.7,365.3z"/>
			<path class="st3" d="M99.4,426c0.2,0,0.4-0.1,0.6-0.2c0.5-0.3,0.7-1,0.4-1.6c-1-1.6-2-3.2-2.9-4.7c-0.3-0.5-1-0.7-1.6-0.4
				c-0.5,0.3-0.7,1-0.4,1.6c0.9,1.6,1.9,3.2,2.9,4.8C98.6,425.9,99,426,99.4,426z"/>
			<path class="st3" d="M87.7,400.2c-0.2-0.6-0.9-0.9-1.5-0.6c-0.6,0.2-0.9,0.9-0.6,1.5c0.7,1.7,1.5,3.4,2.3,5.1
				c0.2,0.4,0.6,0.7,1,0.7c0.2,0,0.3,0,0.5-0.1c0.6-0.3,0.8-1,0.6-1.5C89.2,403.6,88.4,401.9,87.7,400.2z"/>
			<path class="st3" d="M92.3,410c-0.3-0.6-1-0.8-1.5-0.5c-0.6,0.3-0.8,1-0.5,1.5c0.8,1.7,1.7,3.3,2.6,5c0.2,0.4,0.6,0.6,1,0.6
				c0.2,0,0.4,0,0.5-0.1c0.6-0.3,0.8-1,0.5-1.6C94,413.3,93.1,411.7,92.3,410z"/>
			<path class="st3" d="M79,374.6c-0.5-1.8-0.9-3.6-1.3-5.4c-0.1-0.6-0.7-1-1.4-0.9c-0.6,0.1-1,0.7-0.9,1.4c0.4,1.8,0.8,3.7,1.3,5.5
				c0.1,0.5,0.6,0.9,1.1,0.9c0.1,0,0.2,0,0.3,0C78.8,375.8,79.1,375.2,79,374.6z"/>
			<path class="st3" d="M82,385.1c-0.6-1.8-1.1-3.5-1.6-5.3c-0.2-0.6-0.8-1-1.4-0.8c-0.6,0.2-1,0.8-0.8,1.4c0.5,1.8,1.1,3.6,1.6,5.4
				c0.2,0.5,0.6,0.8,1.1,0.8c0.1,0,0.2,0,0.4-0.1C81.9,386.3,82.2,385.7,82,385.1z"/>
			<path class="st3" d="M85.6,395.3c-0.7-1.7-1.3-3.5-2-5.2c-0.2-0.6-0.9-0.9-1.5-0.7c-0.6,0.2-0.9,0.9-0.7,1.5
				c0.6,1.8,1.3,3.5,2,5.3c0.2,0.5,0.6,0.7,1.1,0.7c0.1,0,0.3,0,0.4-0.1C85.6,396.6,85.9,395.9,85.6,395.3z"/>
			<path class="st3" d="M136.3,198.6c0.3,0,0.5-0.1,0.7-0.3c1.4-1.2,2.9-2.3,4.4-3.5c0.5-0.4,0.6-1.1,0.2-1.6
				c-0.4-0.5-1.1-0.6-1.6-0.2c-1.5,1.1-3,2.3-4.4,3.5c-0.5,0.4-0.6,1.1-0.2,1.6C135.6,198.4,135.9,198.6,136.3,198.6z"/>
			<path class="st3" d="M183.2,171c0.1,0,0.3,0,0.4-0.1c1.7-0.7,3.5-1.3,5.2-1.9c0.6-0.2,0.9-0.9,0.7-1.5c-0.2-0.6-0.9-0.9-1.5-0.7
				c-1.8,0.6-3.5,1.3-5.3,2c-0.6,0.2-0.9,0.9-0.6,1.5C182.3,170.8,182.7,171,183.2,171z"/>
			<path class="st3" d="M204,164.4c0.1,0,0.2,0,0.3,0c1.8-0.5,3.6-0.9,5.4-1.3c0.6-0.1,1-0.7,0.9-1.4c-0.1-0.6-0.7-1-1.4-0.9
				c-1.8,0.4-3.7,0.8-5.5,1.3c-0.6,0.2-1,0.8-0.8,1.4C203.1,164,203.5,164.4,204,164.4z"/>
			<path class="st3" d="M193.5,167.4c0.1,0,0.2,0,0.3-0.1c1.8-0.6,3.6-1.1,5.3-1.6c0.6-0.2,1-0.8,0.8-1.4c-0.2-0.6-0.8-1-1.4-0.8
				c-1.8,0.5-3.6,1.1-5.4,1.6c-0.6,0.2-0.9,0.8-0.7,1.4C192.6,167.1,193,167.4,193.5,167.4z"/>
			<path class="st3" d="M173.2,175.3c0.2,0,0.3,0,0.5-0.1c1.7-0.8,3.4-1.5,5.1-2.3c0.6-0.2,0.9-0.9,0.6-1.5
				c-0.2-0.6-0.9-0.9-1.5-0.6c-1.7,0.7-3.4,1.5-5.1,2.3c-0.6,0.3-0.8,0.9-0.6,1.5C172.3,175.1,172.7,175.3,173.2,175.3z"/>
			<path class="st3" d="M88.9,258.4c0.2,0.1,0.3,0.1,0.5,0.1c0.4,0,0.8-0.2,1-0.7c0.8-1.7,1.6-3.4,2.5-5c0.3-0.6,0.1-1.3-0.5-1.5
				c-0.6-0.3-1.3-0.1-1.5,0.5c-0.9,1.7-1.7,3.4-2.5,5.1C88.1,257.4,88.3,258.1,88.9,258.4z"/>
			<path class="st3" d="M163.4,180.3c0.2,0,0.4,0,0.5-0.1c1.6-0.9,3.3-1.8,4.9-2.6c0.6-0.3,0.8-1,0.5-1.5c-0.3-0.6-1-0.8-1.5-0.5
				c-1.7,0.8-3.3,1.7-5,2.6c-0.6,0.3-0.8,1-0.5,1.6C162.6,180,163,180.3,163.4,180.3z"/>
			<path class="st3" d="M214.7,162c0.1,0,0.1,0,0.2,0c1.8-0.3,3.7-0.6,5.5-0.9c0.6-0.1,1.1-0.7,1-1.3c-0.1-0.6-0.7-1.1-1.3-1
				c-1.9,0.3-3.7,0.6-5.6,0.9c-0.6,0.1-1,0.7-0.9,1.3C213.7,161.6,214.2,162,214.7,162z"/>
			<path class="st3" d="M225.6,160.4c0,0,0.1,0,0.1,0c1.8-0.2,3.7-0.4,5.5-0.6c0.6-0.1,1.1-0.6,1-1.2c-0.1-0.6-0.6-1.1-1.2-1
				c-1.9,0.2-3.7,0.4-5.6,0.6c-0.6,0.1-1.1,0.6-1,1.3C224.5,159.9,225,160.4,225.6,160.4z"/>
			<path class="st3" d="M236.5,159.4C236.5,159.4,236.5,159.4,236.5,159.4c1.9-0.1,3.8-0.2,5.6-0.2c0.6,0,1.1-0.5,1.1-1.2
				c0-0.6-0.5-1.1-1.2-1.1c-1.9,0-3.8,0.1-5.6,0.2c-0.6,0-1.1,0.6-1.1,1.2C235.3,158.9,235.9,159.4,236.5,159.4z"/>
			<path class="st3" d="M105.5,230.1c0.2,0.1,0.4,0.2,0.7,0.2c0.4,0,0.7-0.2,0.9-0.5c1.1-1.5,2.2-3,3.4-4.4c0.4-0.5,0.3-1.2-0.2-1.6
				c-0.5-0.4-1.2-0.3-1.6,0.2c-1.2,1.5-2.3,3-3.4,4.5C104.9,229,105,229.7,105.5,230.1z"/>
			<path class="st3" d="M113,221.7c0.3,0,0.7-0.1,0.9-0.4c1.2-1.4,2.4-2.8,3.6-4.2c0.4-0.5,0.4-1.2-0.1-1.6
				c-0.5-0.4-1.2-0.4-1.6,0.1c-1.2,1.4-2.5,2.8-3.7,4.3c-0.4,0.5-0.3,1.2,0.1,1.6C112.5,221.6,112.7,221.7,113,221.7z"/>
			<path class="st3" d="M154,185.8c0.2,0,0.4-0.1,0.6-0.2c1.6-1,3.2-2,4.7-2.9c0.5-0.3,0.7-1,0.4-1.6c-0.3-0.5-1-0.7-1.6-0.4
				c-1.6,0.9-3.2,1.9-4.8,2.9c-0.5,0.3-0.7,1-0.4,1.6C153.2,185.6,153.6,185.8,154,185.8z"/>
			<path class="st3" d="M99.4,239.1c0.2,0.1,0.4,0.2,0.6,0.2c0.4,0,0.7-0.2,1-0.5c1-1.6,2-3.1,3.1-4.6c0.4-0.5,0.2-1.2-0.3-1.6
				c-0.5-0.4-1.2-0.2-1.6,0.3c-1.1,1.5-2.1,3.1-3.1,4.7C98.7,238.1,98.9,238.8,99.4,239.1z"/>
			<path class="st3" d="M120.3,213.5c0.3,0,0.6-0.1,0.8-0.4c1.3-1.3,2.6-2.7,3.9-4c0.4-0.4,0.5-1.2,0-1.6c-0.4-0.4-1.2-0.5-1.6,0
				c-1.3,1.3-2.7,2.7-3.9,4c-0.4,0.5-0.4,1.2,0,1.6C119.7,213.4,120,213.5,120.3,213.5z"/>
			<path class="st3" d="M144.9,191.9c0.2,0,0.5-0.1,0.7-0.2c1.5-1.1,3-2.1,4.6-3.2c0.5-0.4,0.7-1.1,0.3-1.6
				c-0.4-0.5-1.1-0.7-1.6-0.3c-1.6,1-3.1,2.1-4.6,3.2c-0.5,0.4-0.6,1.1-0.3,1.6C144.2,191.7,144.6,191.9,144.9,191.9z"/>
			<path class="st3" d="M247.4,159.1c1.8,0,3.7,0,5.6,0.1c0,0,0,0,0,0c0.6,0,1.1-0.5,1.1-1.1c0-0.6-0.5-1.2-1.1-1.2
				c-1.9-0.1-3.8-0.1-5.6-0.1h0c-0.6,0-1.1,0.5-1.1,1.1C246.3,158.6,246.8,159.1,247.4,159.1z"/>
			<path class="st3" d="M128,205.8c0.3,0,0.6-0.1,0.8-0.3c1.4-1.3,2.7-2.5,4.1-3.7c0.5-0.4,0.5-1.1,0.1-1.6
				c-0.4-0.5-1.1-0.5-1.6-0.1c-1.4,1.2-2.8,2.5-4.2,3.8c-0.5,0.4-0.5,1.2-0.1,1.6C127.4,205.7,127.7,205.8,128,205.8z"/>
		</g>
		<g>
			<g>
				<path class="st2" d="M290.7,177.6v18.1c0,2.4-1.9,4.3-4.3,4.3h-32.8l-9.9,3.6c-1,0.4-2-0.6-1.6-1.6l3.8-9.7v-14.6
					c0-2.4,1.9-4.3,4.3-4.3h36.3C288.8,173.3,290.7,175.3,290.7,177.6z"/>
			</g>
			<g>
				<path class="st3" d="M262.2,187.2c0,1.7-1.4,3.1-3.1,3.1s-3.1-1.4-3.1-3.1c0-1.7,1.4-3.1,3.1-3.1S262.2,185.5,262.2,187.2z"/>
				<path class="st3" d="M272.1,187.2c0,1.7-1.4,3.1-3.1,3.1c-1.7,0-3.1-1.4-3.1-3.1c0-1.7,1.4-3.1,3.1-3.1
					C270.7,184.1,272.1,185.5,272.1,187.2z"/>
				<path class="st3" d="M282,187.2c0,1.7-1.4,3.1-3.1,3.1s-3.1-1.4-3.1-3.1c0-1.7,1.4-3.1,3.1-3.1S282,185.5,282,187.2z"/>
			</g>
		</g>
	</g>
	<g>
		<ellipse class="st2" cx="250.4" cy="436.8" rx="225.4" ry="14.3"/>
	</g>
	<g>
		<g>
			<path class="st3" d="M358.1,431.6c13.6-17.6,47.3-65.5,28.6-89.1c-7.1-9-23-5.4-25.8,29.5c-2,24.5-11.1,49-15.5,59.6H358.1z"/>
			<g>
				<path class="st4" d="M351.6,431.6c8.8-15,15-30.9,18.8-42.6c5.2-15.7,7.3-27.4,7.4-27.5c0.1-0.4-0.2-0.8-0.6-0.9
					c-0.4-0.1-0.8,0.2-0.9,0.6c0,0.1-2.2,11.7-7.3,27.4c-3.9,11.8-10.1,27.9-19.1,43H351.6z"/>
			</g>
		</g>
		<g>
			<path class="st2" d="M448.2,330.7c-5.4-15.7-28.7-18.5-49.5,27.7c-14.3,31.9-38.1,60.5-49.3,73.2h27
				C407.4,410.4,460.8,367.4,448.2,330.7z"/>
			<g>
				<g>
					<path class="st3" d="M426.6,350.8c-0.5-0.3-1.2-0.1-1.5,0.4c-0.1,0.2-8.7,14.9-23.2,33.8c-10.4,13.4-25.4,31-43.6,46.6h3.4
						c17.4-15.3,31.9-32.3,42-45.3c14.6-19,23.3-33.9,23.4-34C427.3,351.8,427.1,351.1,426.6,350.8z"/>
				</g>
			</g>
		</g>
		<g>
			<path class="st3" d="M149.7,423.2c-0.1,3.2,0.6,6.4,1.8,9.2h30c7.6-7,9.9-18.4,4.8-27.6c-2.3-4.1-5.7-7.4-10.9-8
				c-16.2-1.9-4.8-14.2-10.8-24c-6.9-11.3-18.8-6.9-23-15.9c-5.8-12.4-23-18.9-24.8-3.9c-1.7,15,11.7,20.3,6.8,31
				c-4.9,10.7-1.6,21.8,8.6,23.8C142.4,409.7,150,410.7,149.7,423.2z"/>
			<g>
				<path class="st4" d="M177.2,432.4l-43.6-67.6c-0.4-0.5-1.1-0.7-1.6-0.4c-0.5,0.4-0.7,1.1-0.4,1.6l42.8,66.3H177.2z"/>
			</g>
		</g>
		<g>
			<path class="st2" d="M156,383.7c10.3,7.7,18.3,12.8,11.2,26.6c-3.7,7.3-3.7,15.8-0.8,22h41.1c6.8-5.5,10.9-13.9,10.4-23.2
				c-0.3-5.8-2.4-11.3-7.9-14.7c-17.1-10.8,2.2-18.5,0.8-32.6c-1.6-16.3-17.3-17.8-17.2-30c0.1-17-15.6-33.4-25.6-17.6
				c-9.9,15.8,2.3,28.9-8.9,38.2C147.9,361.9,145.7,376.1,156,383.7z"/>
			<g>
				<path class="st3" d="M189.7,432.4h2.9l-12.3-95.9c-0.1-0.8-0.8-1.4-1.6-1.3c-0.8,0.1-1.4,0.8-1.3,1.6L189.7,432.4z"/>
			</g>
		</g>
		<g>
			<g>
				<path class="st3" d="M71.4,432.6c-26.3-64.4-34.5-110-23.5-132.3c0.4-0.9,0.1-2-0.8-2.4c-0.9-0.4-2-0.1-2.4,0.8
					c-6.6,13.4-6.8,34.3-0.6,62.2c4.5,20.3,12.4,44.4,23.5,71.7H71.4z"/>
			</g>
			<path class="st2" d="M40.6,335.6c0,0-14.2,4.8-21.6-20.5C19,315.1,42.8,314,40.6,335.6z"/>
			<path class="st2" d="M43.7,348.9c0,0-5.5-13.9,19.3-22.7C63,326.2,65.4,349.9,43.7,348.9z"/>
			<path class="st2" d="M42.8,310.2c0,0-9.9-11.3,10.6-27.8C53.4,282.4,63.6,303.9,42.8,310.2z"/>
			<path class="st2" d="M49.2,375.7c0,0-11.7,9.3-27.2-12C21.9,363.7,44,354.6,49.2,375.7z"/>
			<path class="st2" d="M54.4,388.7c0,0-7.9-12.7,15.1-25.7C69.5,363,76,385.9,54.4,388.7z"/>
			<path class="st2" d="M59.8,407.2c0,0-11.6,9.5-27.5-11.5C32.3,395.7,54.2,386.2,59.8,407.2z"/>
		</g>
		<g>
			<g>
				<path class="st3" d="M315.2,429.8c-42.9-54.8-63.2-96.4-58.7-120.8c0.2-1-0.5-1.9-1.4-2.1c-1-0.2-1.9,0.5-2.1,1.4
					c-2.7,14.7,2.8,34.9,16.4,60c9.9,18.3,24,39.3,42.2,62.5L315.2,429.8z"/>
			</g>
			<path class="st2" d="M259.1,345c0,0-12.4,8.4-26.4-13.9C232.8,331.1,255.3,323.5,259.1,345z"/>
			<path class="st2" d="M265.7,356.8c0,0-9.1-11.9,12.4-27.1C278.1,329.7,286.9,351.9,265.7,356.8z"/>
			<path class="st2" d="M254.3,319.9c0,0-12.6-8.1,2.6-29.7C256.9,290.3,272.6,308.2,254.3,319.9z"/>
			<path class="st2" d="M278.3,381.1c0,0-8.8,12.1-29.5-4.1C248.8,377,267.5,362.2,278.3,381.1z"/>
			<path class="st2" d="M286.9,392.2c0,0-11-10.1,7.5-28.8C294.4,363.4,306.9,383.6,286.9,392.2z"/>
			<path class="st2" d="M297.1,408.5c0,0-8.5,12.3-29.6-3.6C267.6,405,286,389.9,297.1,408.5z"/>
		</g>
	</g>
	<g>
		<g>
			<g>
				<g>
					<g>
						<path class="st5" d="M471,137.3c2.5,0,4.6,2.1,4.6,4.6c0,2.5-2.1,4.6-4.6,4.6c-2.5,0-4.6-2.1-4.6-4.6
							C466.5,139.3,468.5,137.3,471,137.3z M471,145c1.7,0,3.1-1.4,3.1-3.1c0-1.7-1.4-3.1-3.1-3.1c-1.7,0-3.1,1.4-3.1,3.1
							C467.9,143.6,469.3,145,471,145z"/>
					</g>
					<g>
						<g>
							<g>
								<g>
									<path class="st6" d="M452.4,131.1c2.5,0,4.6,2.1,4.6,4.6c0,2.5-2.1,4.6-4.6,4.6c-2.5,0-4.6-2.1-4.6-4.6
										C447.8,133.2,449.8,131.1,452.4,131.1z M452.4,138.8c1.7,0,3.1-1.4,3.1-3.1c0-1.7-1.4-3.1-3.1-3.1c-1.7,0-3.1,1.4-3.1,3.1
										C449.2,137.4,450.6,138.8,452.4,138.8z"/>
								</g>
							</g>
						</g>
					</g>
					<g>
						<g>
							<g>
								<path class="st7" d="M447.2,116c0.4,0,0.7,0.3,0.7,0.7v3.2c0,0.4-0.3,0.7-0.7,0.7c-0.4,0-0.7-0.3-0.7-0.7v-3.2
									C446.5,116.4,446.8,116,447.2,116z"/>
							</g>
							<g>
								<path class="st7" d="M447.2,110.5c0.4,0,0.7,0.3,0.7,0.7v3.2c0,0.4-0.3,0.7-0.7,0.7c-0.4,0-0.7-0.3-0.7-0.7v-3.2
									C446.5,110.8,446.8,110.5,447.2,110.5z"/>
							</g>
						</g>
						<g>
							<g>
								<path class="st7" d="M442.8,114.8h2.8c0.4,0,0.7,0.3,0.7,0.7c0,0.4-0.3,0.7-0.7,0.7h-2.8c-0.4,0-0.7-0.3-0.7-0.7
									C442,115.2,442.4,114.8,442.8,114.8z"/>
							</g>
							<g>
								<g>
									<g>
										<path class="st7" d="M448.8,114.8h2.8c0.4,0,0.7,0.3,0.7,0.7c0,0.4-0.3,0.7-0.7,0.7h-2.8c-0.4,0-0.7-0.3-0.7-0.7
											C448.1,115.2,448.4,114.8,448.8,114.8z"/>
									</g>
								</g>
							</g>
						</g>
					</g>
					<g>
						<g>
							<g>
								<g>
									<g>
										<path class="st6" d="M466.6,121.1c0.4,0,0.7,0.3,0.7,0.7v3.2c0,0.4-0.3,0.7-0.7,0.7c-0.4,0-0.7-0.3-0.7-0.7v-3.2
											C465.9,121.4,466.2,121.1,466.6,121.1z"/>
									</g>
								</g>
								<g>
									<g>
										<path class="st6" d="M466.6,115.6c0.4,0,0.7,0.3,0.7,0.7v3.2c0,0.4-0.3,0.7-0.7,0.7c-0.4,0-0.7-0.3-0.7-0.7v-3.2
											C465.9,115.9,466.2,115.6,466.6,115.6z"/>
									</g>
								</g>
							</g>
							<g>
								<g>
									<g>
										<path class="st6" d="M462.2,119.9h2.8c0.4,0,0.7,0.3,0.7,0.7c0,0.4-0.3,0.7-0.7,0.7h-2.8c-0.4,0-0.7-0.3-0.7-0.7
											C461.4,120.2,461.8,119.9,462.2,119.9z"/>
									</g>
								</g>
								<g>
									<g>
										<g>
											<path class="st6" d="M468.2,119.9h2.8c0.4,0,0.7,0.3,0.7,0.7c0,0.4-0.3,0.7-0.7,0.7h-2.8c-0.4,0-0.7-0.3-0.7-0.7
												C467.5,120.2,467.8,119.9,468.2,119.9z"/>
										</g>
									</g>
								</g>
							</g>
						</g>
					</g>
				</g>
			</g>
		</g>
		<g>
			<g>
				<g>
					<g>
						<path class="st5" d="M39.8,130.5c0,2.5-2.1,4.6-4.6,4.6c-2.5,0-4.6-2.1-4.6-4.6c0-2.5,2.1-4.6,4.6-4.6
							C37.8,126,39.8,128,39.8,130.5z M38.4,130.5c0-1.7-1.4-3.1-3.1-3.1c-1.7,0-3.1,1.4-3.1,3.1s1.4,3.1,3.1,3.1
							C37,133.7,38.4,132.3,38.4,130.5z"/>
					</g>
					<g>
						<g>
							<g>
								<g>
									<path class="st6" d="M58.5,124.4c0,2.5-2.1,4.6-4.6,4.6s-4.6-2.1-4.6-4.6s2.1-4.6,4.6-4.6S58.5,121.8,58.5,124.4z
										 M57.1,124.4c0-1.7-1.4-3.1-3.1-3.1c-1.7,0-3.1,1.4-3.1,3.1c0,1.7,1.4,3.1,3.1,3.1C55.7,127.5,57.1,126.1,57.1,124.4z"/>
								</g>
							</g>
						</g>
					</g>
					<g>
						<g>
							<g>
								<path class="st7" d="M59.1,104.7c-0.4,0-0.7,0.3-0.7,0.7v3.2c0,0.4,0.3,0.7,0.7,0.7c0.4,0,0.7-0.3,0.7-0.7v-3.2
									C59.8,105,59.5,104.7,59.1,104.7z"/>
							</g>
							<g>
								<path class="st7" d="M59.1,99.2c-0.4,0-0.7,0.3-0.7,0.7v3.2c0,0.4,0.3,0.7,0.7,0.7c0.4,0,0.7-0.3,0.7-0.7v-3.2
									C59.8,99.5,59.5,99.2,59.1,99.2z"/>
							</g>
						</g>
						<g>
							<g>
								<path class="st7" d="M63.5,103.5h-2.8c-0.4,0-0.7,0.3-0.7,0.7c0,0.4,0.3,0.7,0.7,0.7h2.8c0.4,0,0.7-0.3,0.7-0.7
									C64.2,103.9,63.9,103.5,63.5,103.5z"/>
							</g>
							<g>
								<g>
									<g>
										<path class="st7" d="M57.5,103.5h-2.8c-0.4,0-0.7,0.3-0.7,0.7c0,0.4,0.3,0.7,0.7,0.7h2.8c0.4,0,0.7-0.3,0.7-0.7
											C58.2,103.9,57.9,103.5,57.5,103.5z"/>
									</g>
								</g>
							</g>
						</g>
					</g>
					<g>
						<g>
							<g>
								<g>
									<g>
										<path class="st6" d="M39.7,109.8c-0.4,0-0.7,0.3-0.7,0.7v3.2c0,0.4,0.3,0.7,0.7,0.7c0.4,0,0.7-0.3,0.7-0.7v-3.2
											C40.4,110.1,40.1,109.8,39.7,109.8z"/>
									</g>
								</g>
								<g>
									<g>
										<path class="st6" d="M39.7,104.3c-0.4,0-0.7,0.3-0.7,0.7v3.2c0,0.4,0.3,0.7,0.7,0.7c0.4,0,0.7-0.3,0.7-0.7V105
											C40.4,104.6,40.1,104.3,39.7,104.3z"/>
									</g>
								</g>
							</g>
							<g>
								<g>
									<g>
										<path class="st6" d="M44.1,108.6h-2.8c-0.4,0-0.7,0.3-0.7,0.7s0.3,0.7,0.7,0.7h2.8c0.4,0,0.7-0.3,0.7-0.7
											S44.5,108.6,44.1,108.6z"/>
									</g>
								</g>
								<g>
									<g>
										<g>
											<path class="st6" d="M38.1,108.6h-2.8c-0.4,0-0.7,0.3-0.7,0.7s0.3,0.7,0.7,0.7h2.8c0.4,0,0.7-0.3,0.7-0.7
												S38.5,108.6,38.1,108.6z"/>
										</g>
									</g>
								</g>
							</g>
						</g>
					</g>
				</g>
			</g>
		</g>
	</g>
	<g>
		<g>
			<g>
				<g>
					<polygon class="st8" points="123.5,413.5 121.8,423.9 129.7,424.7 132.1,414.3 					"/>
					<g>
						<path class="st7" d="M125.5,422.5c0,0,4.1-0.4,5.1-0.2c1.1,0.2,6.9,9.5,9.3,10.3c4.2,1.6,3.1,8.5,0.4,8.4
							c-7.9-0.3-20.6-5.8-20.6-5.8s0.3-9,1.3-11.7C121.9,420.8,123.2,422.9,125.5,422.5z"/>
						<g>
							<g>
								<path class="st9" d="M130.6,431.1c-0.1,0-0.3,0-0.4-0.1c-0.2-0.2-0.2-0.5,0-0.8c0.1-0.1,1.7-1.8,3.4-2.2
									c2.3-0.5,3.6,1,3.7,1.1c0.2,0.2,0.2,0.6-0.1,0.8c-0.2,0.2-0.6,0.2-0.8-0.1c0,0-1-1.1-2.6-0.7c-1.4,0.3-2.9,1.9-2.9,1.9
									C130.9,431,130.8,431.1,130.6,431.1z"/>
							</g>
							<g>
								<path class="st9" d="M129.4,429.2c-0.1,0-0.3,0-0.4-0.1c-0.2-0.2-0.2-0.6,0-0.8c0.1-0.1,1.7-1.8,3.4-2.2
									c2.3-0.5,3.6,1,3.7,1.1c0.2,0.2,0.2,0.6-0.1,0.8c-0.2,0.2-0.6,0.2-0.8-0.1c0,0-1-1.1-2.6-0.7c-1.4,0.3-2.9,1.9-2.9,1.9
									C129.7,429.2,129.6,429.2,129.4,429.2z"/>
							</g>
							<g>
								<path class="st9" d="M132.5,432.8c-0.1,0-0.3,0-0.4-0.1c-0.2-0.2-0.2-0.6,0-0.8c0.1-0.1,1.7-1.8,3.4-2.2
									c2.3-0.5,3.6,1,3.7,1.1c0.2,0.2,0.2,0.6-0.1,0.8c-0.2,0.2-0.6,0.2-0.8-0.1c0,0-1-1.1-2.6-0.7c-1.4,0.3-2.9,1.9-2.9,1.9
									C132.7,432.8,132.6,432.8,132.5,432.8z"/>
							</g>
						</g>
					</g>
				</g>
				<g>
					<g>
						<g>
							<path class="st5" d="M169.3,295c0,0-0.5,2.3-1.3,6.2c-0.2,1-0.5,2.2-0.7,3.4c-2.8,13-7.9,36.5-12.3,53
								c-6.2,23.2-21,60.7-21,60.7l-10.1-1.7l-1-0.2l-2.4-0.4c0,0,4.9-24.3,9.8-45.4c3.2-13.9,8.4-47,11.5-68
								c1.6-10.8,2.7-18.4,2.7-18.4L169.3,295z"/>
						</g>
					</g>
				</g>
				<path class="st10" d="M169.3,295c0,0-0.5,2.3-1.3,6.2c-0.2,1-0.5,2.2-0.7,3.4c-4.8,0.3-17.8-0.8-25.5-1.8
					c1.6-10.8,2.7-18.4,2.7-18.4L169.3,295z"/>
				<g>
					<path class="st10" d="M148.2,298.5c-0.1,0.8-10.9,77.2-24.3,118.2l-1-0.2c13.4-40.9,24.2-117.4,24.3-118.2L148.2,298.5z"/>
				</g>
			</g>
			<g>
				<g>
					<polygon class="st8" points="202.4,418.6 202.1,427.7 193.8,427.4 193.5,417.7 					"/>
					<g>
						<g>
							<g>
								<path class="st7" d="M200,427.3c0,0,1.8-2.4,3.2-2.3c1.4,0.1,12.3,8.9,16,9.6c3.7,0.7,3,3.5,2.3,4.9
									c-0.7,1.4-29.9-0.7-29.9-0.7s-0.7-8.7,0.2-11.3C192.9,424.9,197.1,428,200,427.3z"/>
								<g>
									<g>
										<path class="st9" d="M206,433.5c-0.1,0-0.3,0-0.4,0c-0.3-0.1-0.3-0.5-0.2-0.7c0-0.1,1.2-2.1,2.8-2.8
											c2.1-1,3.6,0.1,3.7,0.2c0.2,0.2,0.3,0.5,0.1,0.7c-0.2,0.2-0.5,0.3-0.7,0.1c0,0-1.1-0.8-2.6-0.1c-1.3,0.6-2.3,2.4-2.3,2.4
											C206.2,433.3,206.1,433.4,206,433.5z"/>
									</g>
									<g>
										<path class="st9" d="M204.4,432c-0.1,0-0.3,0-0.4,0c-0.3-0.1-0.3-0.5-0.2-0.7c0-0.1,1.2-2.1,2.8-2.8
											c2.1-1,3.6,0.1,3.7,0.2c0.2,0.2,0.3,0.5,0.1,0.7c-0.2,0.2-0.5,0.3-0.7,0.1c0,0-1.2-0.8-2.6-0.1c-1.3,0.6-2.3,2.4-2.3,2.4
											C204.7,431.8,204.6,431.9,204.4,432z"/>
									</g>
									<g>
										<path class="st9" d="M208.1,434.7c-0.1,0-0.3,0-0.4,0c-0.3-0.1-0.3-0.5-0.2-0.7c0-0.1,1.2-2.1,2.8-2.8
											c2.1-1,3.6,0.1,3.7,0.2c0.2,0.2,0.3,0.5,0.1,0.7c-0.2,0.2-0.5,0.3-0.7,0.1c0,0-1.2-0.8-2.6-0.1c-1.3,0.6-2.3,2.4-2.3,2.4
											C208.3,434.5,208.2,434.6,208.1,434.7z"/>
									</g>
								</g>
							</g>
						</g>
					</g>
				</g>
				<path class="st5" d="M203.9,421l-8.5-0.6l-1-0.1l-2.1-0.1c0,0-5.6-49.6-7.3-62.8c-1.5-11.5-8.3-37.2-12.7-53.2
					c-1.2-4.5-2.3-8.3-3-10.7c-0.5-1.9-0.8-3-0.8-3l28.4-3c0,0,0.1,0.6,0.2,1.7c0.3,2.3,0.9,6.7,1.5,12.2c1.9,15,4.8,38.4,5.9,50.3
					C207.5,382.4,203.9,421,203.9,421z"/>
				<path class="st10" d="M198.6,301.4l-26.3,2.8c-1.2-4.5-2.3-8.3-3-10.7l27.7-4.2C197.4,291.5,197.9,295.9,198.6,301.4z"/>
				<g>
					<path class="st10" d="M195.4,420.4l-1-0.1c-0.6-15.3-2.4-53.7-5.6-69.9c-4-20.5-13.1-50.2-13.2-50.5l1-0.3
						c0.1,0.3,9.2,30.1,13.3,50.6C193,366.6,194.8,405.1,195.4,420.4z"/>
				</g>
			</g>
			<path class="st6" d="M207.7,220.4c-5-14.9-5.9-27.5-5.9-27.5c-7.4,7.7-7.2,33.6-7.2,33.6c0.9,2.9,2.1,5.6,3.4,8.1
				C201.3,229.9,204.5,225.2,207.7,220.4z"/>
			<g>
				<g>
					<g>
						<g>
							<path class="st7" d="M140.4,273.4c0,0.4,0,0.8-0.1,1.2c-0.4,7.2-0.7,12.7-0.9,15.5c6.8,2.3,13.7,3.9,20.6,4.9
								c0.3,0,0.6,0.1,0.9,0.1c0.2,0,0.3,0,0.5,0.1c0.4,0,0.7,0.1,1.1,0.1c0.4,0.1,0.8,0.1,1.2,0.1c4.7,0.5,9.4,0.7,14.2,0.6
								c1,0,1.9-0.1,2.9-0.1c0.1,0,0.1,0,0.2,0c0.2,0,0.5,0,0.7,0c0.1,0,0.3,0,0.4,0c5.5-0.3,11.1-1.1,16.7-2.2
								c0.1-1.2,0.2-3.1,0.3-5.4c0-0.4,0.1-0.9,0.1-1.3l0,0c0.2-3.3,0.4-7.4,0.7-12.1c0-0.4,0-0.8,0.1-1.2c0.2-3.1,0.3-6.4,0.5-9.9
								c0-0.4,0-0.8,0.1-1.2c0.2-3.6,0.3-7.3,0.5-11c0.1-2.3,0.2-4.6,0.3-6.9c0.1-2.3,0.2-4.7,0.3-7c0-0.5,0-1,0.1-1.5
								c0.8-22.1,1.1-42.4-0.3-44.8c-1-1.6-3.3-3.6-6.1-5.6c-0.3-0.2-0.7-0.5-1-0.7c-1.2-0.8-11-4.8-12.2-5.7l-10.5-1.4
								c-0.1,0-10.4,2.8-10.4,2.9c-0.4,0.2-0.9,0.4-1.4,0.7c-3.9,1.9-7.7,4-9.9,5.8c-0.3,0.3-0.6,0.5-0.9,0.8
								c-0.2,0.2-0.4,0.4-0.5,0.6c-0.1,0.2-0.3,0.5-0.4,0.9c-1.6,4.6-3.3,22.8-4.9,42.6c-0.1,1.4-0.2,2.9-0.3,4.3
								c0,0.6-0.1,1.3-0.1,1.9c0,0.4-0.1,0.9-0.1,1.3c0,0.2,0,0.4,0,0.7c-0.1,1.1-0.2,2.2-0.2,3.2c-0.1,0.8-0.1,1.6-0.2,2.4
								C141.4,255.8,140.8,265.5,140.4,273.4z"/>
						</g>
					</g>
				</g>
				<g>
					<g>
						<g>
							<path class="st6" d="M177.8,195.3c-5.6-0.3-10.5-6.6-10.7-6.9c-0.1-0.2-0.1-0.4,0.1-0.6c0.2-0.1,0.4-0.1,0.6,0.1
								c0.1,0.1,5.1,6.7,10.6,6.6c0.2,0,0.4,0.2,0.4,0.4c0,0.2-0.2,0.4-0.4,0.4C178.1,195.3,177.9,195.3,177.8,195.3z"/>
						</g>
					</g>
				</g>
				<g>
					<g>
						<g>
							<path class="st6" d="M168.8,262.2c-0.2,0-0.4-0.2-0.4-0.4c0-0.2,0.2-0.4,0.4-0.4c14.6-0.8,22.2-25.6,22.2-25.8
								c0.1-0.2,0.3-0.3,0.5-0.3c0.2,0.1,0.3,0.3,0.3,0.5C191.5,236.9,184.1,261.4,168.8,262.2C168.9,262.2,168.8,262.2,168.8,262.2
								z"/>
						</g>
					</g>
				</g>
				<g>
					<g>
						<g>
							<path class="st6" d="M175.1,254.9c-0.1,0-0.3-0.1-0.3-0.2c-0.1-0.2,0-0.4,0.2-0.5c8-4.3,9.6-11.3,9.6-11.3
								c0-0.2,0.3-0.4,0.5-0.3c0.2,0,0.4,0.3,0.3,0.5c-0.1,0.3-1.6,7.4-10,11.9C175.2,254.9,175.1,254.9,175.1,254.9z"/>
						</g>
					</g>
				</g>
			</g>
			<g>
				<path class="st5" d="M163.8,149.8c0,0-2.7-9,1.9-11.3c4.6-2.3,8.1-1.4,10.9-3.1s10.6-7.4,15.4-4.4s6.3,15.1-0.8,16.6
					C183.8,149.2,163.8,149.8,163.8,149.8z"/>
				<g>
					<path class="st11" d="M190.8,156.9c0,0,2.7-3.2,4.4-0.3c1.7,2.8-1.4,10.8-5.8,8.5L190.8,156.9z"/>
					<g>
						<path class="st12" d="M190.5,162.7c0.2,0,0.3-0.1,0.4-0.3c0.8-2.5,3.5-3.3,3.5-3.3c0.2-0.1,0.3-0.3,0.3-0.5
							c-0.1-0.2-0.3-0.3-0.5-0.3c-0.1,0-3,1-4,3.8c-0.1,0.2,0,0.4,0.2,0.5C190.4,162.7,190.5,162.7,190.5,162.7z"/>
					</g>
					<g>
						<path class="st12" d="M193.2,161.6c0.1,0,0.1,0,0.2,0c0.2-0.1,0.2-0.3,0.1-0.5c0,0-0.4-0.8-1.4-1.2c-0.2-0.1-0.4,0-0.5,0.2
							c-0.1,0.2,0,0.4,0.2,0.5c0.7,0.4,1,0.9,1,0.9C192.9,161.5,193.1,161.6,193.2,161.6z"/>
					</g>
				</g>
				<g>
					<path class="st11" d="M165.3,155.4c0,0-2.3-3.5-4.3-0.8c-2,2.6,0.1,10.9,4.7,9.2L165.3,155.4z"/>
					<g>
						<path class="st12" d="M164.9,161.2c-0.2,0-0.3-0.1-0.4-0.3c-0.5-2.5-3.1-3.7-3.1-3.7c-0.2-0.1-0.3-0.3-0.2-0.5
							c0.1-0.2,0.3-0.3,0.5-0.2c0.1,0.1,2.9,1.3,3.5,4.2c0,0.2-0.1,0.4-0.3,0.5C165,161.2,164.9,161.2,164.9,161.2z"/>
					</g>
					<g>
						<g>
							<path class="st12" d="M162.4,159.8c-0.1,0-0.1,0-0.2-0.1c-0.2-0.1-0.2-0.4-0.1-0.5c0,0,0.5-0.7,1.5-1.1
								c0.2-0.1,0.4,0,0.5,0.2c0.1,0.2,0,0.4-0.2,0.5c-0.8,0.3-1.2,0.8-1.2,0.8C162.6,159.7,162.5,159.8,162.4,159.8z"/>
						</g>
					</g>
				</g>
				<path class="st8" d="M171,170.9l-0.5,8c0,0,2.1,4.2,5.4,4.7c3.2,0.5,6.3-3.2,6.3-3.2l0.5-8.3L171,170.9z"/>
				<path class="st11" d="M171,170.9l-0.2,3.6c2,2.5,5.8,3.4,11.6,2.9l0.3-5.2L171,170.9z"/>
				<path class="st8" d="M163.8,149.8c0,3.1,0,7,0.4,10.2l0,0c0,0,0,0,0,0c0,0,0,0,0,0c0.1,0.8,0.2,1.5,0.4,2.2
					c0.1,0.4,0.2,0.8,0.3,1.2c1.5,6.1,5.4,15,16.7,11.7c4.8-1.4,7.5-6.1,9-11.2c0.1-0.3,0.2-0.6,0.3-0.9c0.1-0.2,0.1-0.4,0.2-0.6
					l0.1-0.3c0,0,0-0.1,0-0.1c0,0,0,0,0,0c1-4,1.3-8,1.5-10.9c0.1-3-1.3-5.8-3.8-7.4c-6.7-4.4-14.2-3.3-19.2-1.8
					C166.2,143,163.9,146.2,163.8,149.8z"/>
				<path class="st5" d="M190.7,156.9c0,0-1.8,6.5-3.9,10.2c-1-1.9-3.9-3.6-5.7-3.6c-1.4,0-3.1,0.3-3.5,0.9c-0.4-0.5-1.7-1-2.9-1.3
					c-1.6-0.4-4.7,0.3-6.2,1.8c-0.7-1.8-1.8-3.5-2.1-5.1c-0.5-2.1-0.8-5.9-0.8-5.9l-1.7,0.1c0,0,0.1,11,1.2,13.4
					c1.1,2.3,2.3,3.7,2.7,6.2c0.4,2.5,2.3,3.1,3.2,3.1c0.9,0.1,2.4,1.7,4.3,2.6c2,0.8,2.9-0.4,4.9-0.5s2.6-0.5,4-1.8
					c1.4-1.2,2.4-2.8,3.4-4.4c0.9-1.6,2.3-4,2.4-5.2c0-1.2,2.2-7,2.2-10.1L190.7,156.9z M184.6,169.4c-4.4,1.8-4.6,4-8.3,3
					c-2.5-0.6-1.7-1.8-3.7-2c-1.9-0.1-3.2-1.2-3.7-3.5c0.8-0.7,2.3-1.7,4-1.6c2.5,0.2,3.5,0.6,4.5-0.2c0.1-0.1,0.1-0.1,0.2-0.2
					c0.8,1,2,0.7,4.4,1.1c1.7,0.3,2.9,1.7,3.5,2.5C185.3,169,185,169.3,184.6,169.4z"/>
				<path class="st5" d="M171.7,156.1c-0.1,0.9,0.3,1.6,0.9,1.6c0.5,0,1-0.6,1.1-1.5c0.1-0.9-0.3-1.6-0.9-1.6
					C172.2,154.6,171.7,155.2,171.7,156.1z"/>
				<path class="st5" d="M183.7,156.8c-0.1,0.9,0.3,1.6,0.9,1.6c0.5,0,1-0.6,1.1-1.5c0.1-0.9-0.3-1.6-0.9-1.6
					C184.2,155.3,183.7,156,183.7,156.8z"/>
				<path class="st5" d="M168.8,151.1c0,0,4-1.8,7.2-0.6l-0.2,1.8c0,0-4.6-0.1-6.9,0.9C168.6,152.4,168.6,151.8,168.8,151.1z"/>
				<path class="st5" d="M188.3,152.1c0,0-3.9-2.1-7.2-1.1l0.1,1.8c0,0,4.7,0.2,6.9,1.4C188.4,153.5,188.5,152.8,188.3,152.1z"/>
				<g>
					<path class="st11" d="M177.5,163.4c-0.6,0-1.3-0.3-1.4-0.4c-0.2-0.1-0.3-0.3-0.2-0.5c0.1-0.2,0.3-0.3,0.5-0.2
						c0.3,0.2,1.1,0.4,1.5,0.2c0.1,0,0.2-0.1,0.2-0.3c0.2-1.3,0.1-5.8,0.1-5.9c0-0.2,0.2-0.4,0.4-0.4c0.2,0,0.4,0.2,0.4,0.4
						c0,0.2,0.1,4.6-0.1,6c-0.1,0.5-0.4,0.8-0.6,0.9C178.1,163.4,177.8,163.4,177.5,163.4z"/>
				</g>
				<path class="st9" d="M182,166.6c-0.4,1.4-1.5,4.1-4.7,3.9c-3.2-0.2-4-2.7-4.2-4.4L182,166.6z"/>
				<path class="st5" d="M165.6,153.9c0-1.6,0.2-3.3,1.3-3.6c1.5-0.3,0.8-4,3-5.5c2.1-1.5,6.7-1.6,9.6,0.4c2.9,2,6.4,0.2,7.7,0.6
					c1.4,0.4,3.1,2.4,2.5,4.2c-0.6,1.7,0.8,2.9,1.1,4.8c0.1,0.5,0,1.2-0.1,2c0.5,0.1,0.9,0.3,1.4,0.4c0.3-2.3,0.5-4.5,0.6-6.2
					c0.1-3-1.3-5.8-3.8-7.4c-6.7-4.4-14.2-3.3-19.2-1.8c-3.4,1.1-5.8,4.3-5.8,7.9c0,1.3,0,2.7,0,4.2
					C164.4,154,165,153.9,165.6,153.9z"/>
			</g>
			<g>
				<path class="st5" d="M223.7,278.1v-60.4c0-2.9,2.4-5.3,5.3-5.3h1.3c2.9,0,5.3,2.4,5.3,5.3v60.4c0,2.9-2.4,5.3-5.3,5.3H229
					C226.1,283.4,223.7,281,223.7,278.1z"/>
				<path class="st10" d="M177.7,264v-32.3c0-7.3,6-13.3,13.3-13.3h32.8v58.9H191C183.7,277.3,177.7,271.4,177.7,264z"/>
				<g>
					<g>
						<path class="st13" d="M235.6,235.4v-7.1h20.7c1.7,0,3.2,1.4,3.2,3.2v0.8c0,1.7-1.4,3.2-3.2,3.2H235.6z"/>
						<path class="st13" d="M235.6,267.5v-7.1h20.7c1.7,0,3.2,1.4,3.2,3.2v0.8c0,1.7-1.4,3.2-3.2,3.2H235.6z"/>
					</g>
				</g>
			</g>
			<g>
				<g>
					<path class="st8" d="M179.4,268.4l1.7,0.7c1.5,0.6,3,0.2,4.3-0.8c0.6-0.5,1.4-1.4,1.9-1.6c1.2-0.7,4.1-1.6,5-1.3
						c0.8,0.3,0,1.7-0.8,2.1c-0.8,0.4-2.1,0.9-3,1.6c-0.9,0.7,2.8,4.5,4.4,5.7c1.6,1.2,5.2,1.6,4.9,3.2c-0.3,1.6-2.8,0.8-2.8,0.8
						s0.1,1.6-2.3,1.9c0,0-0.2,1.5-1.8,1.6c0,0-0.6,1.7-2.2,1.5c-1.7-0.2-6.8-0.8-13.6-10.1L179.4,268.4z"/>
				</g>
				<path class="st6" d="M179.9,267.4c0,0-24.3-18.7-32.2-28.7c0,0,1-12.2,2.2-22c0.8-6.3,0.9-12.8,0.3-19.1c-0.3-3.6-0.9-7-1.8-9.1
					c0,0-6.8,2.2-10.6,25.3c-2.1,12.5-2.7,22.5-3,27.6c-0.1,2.6,0.8,5.2,2.4,7.2c5.2,6.2,18.2,19.8,36.9,25.8
					C174.2,274.4,179,270.4,179.9,267.4z"/>
			</g>
			<path class="st8" d="M220.8,279.5c0,0-0.8-4.6-2.5-5.9c-1.7-1.3-1.6,5-1.6,5s-0.2-7.6-2-7.9c-1.8-0.3-1.8,7.1-1.8,7.1
				s-0.9-5.1-2.3-5.5c-1.4-0.4-1.6,5.1-1.6,5.1s-1.2-4-2.2-4.4c-1-0.4-1.8,4.2-1.3,6.5c0.5,2.4,3.4,1.1,3.4,1.1s2.7,0.9,3.7,0
				c0,0,2.4,1.2,3.8,0.6C216.3,281.2,220.3,282.5,220.8,279.5z"/>
		</g>
	</g>
	<g>
		<g>
			<g>
				<polygon class="st8" points="304.5,419.2 304.5,429.3 311.7,429.1 312.2,418.4 				"/>
				<g>
					<g>
						<g>
							<path class="st7" d="M306.5,428.3c0,0-1.6-2.3-3-2.2c-1.3,0.1-11.9,8.1-15.5,8.7c-3.6,0.6-2.9,3.2-2.3,4.6
								c0.6,1.4,28.4,0.1,28.4,0.1s0.9-8.2,0.1-10.8C313.3,426.2,309.2,429,306.5,428.3z"/>
							<g>
								<g>
									<path class="st9" d="M300.6,434c0.1,0,0.3,0,0.4,0c0.2-0.1,0.3-0.4,0.2-0.7c0-0.1-1.1-2-2.5-2.8c-1.9-1-3.5,0-3.5,0.1
										c-0.2,0.2-0.3,0.5-0.1,0.7c0.2,0.2,0.5,0.3,0.7,0.1c0,0,1.1-0.7,2.5,0c1.2,0.6,2.1,2.3,2.1,2.4
										C300.4,433.8,300.5,433.9,300.6,434z"/>
								</g>
								<g>
									<path class="st9" d="M302.1,432.6c0.1,0,0.3,0,0.4,0c0.2-0.1,0.3-0.4,0.2-0.7c0-0.1-1.1-2-2.5-2.8c-1.9-1-3.5,0-3.5,0.1
										c-0.2,0.2-0.3,0.5-0.1,0.7c0.2,0.2,0.5,0.3,0.7,0.1c0,0,1.1-0.7,2.5,0c1.2,0.6,2.1,2.3,2.1,2.4
										C301.9,432.5,302,432.6,302.1,432.6z"/>
								</g>
								<g>
									<path class="st9" d="M298.6,435.1c0.1,0,0.3,0,0.4,0c0.2-0.1,0.3-0.4,0.2-0.7c0-0.1-1.1-2-2.5-2.8c-1.9-1-3.5,0-3.5,0.1
										c-0.2,0.2-0.3,0.5-0.1,0.7c0.2,0.2,0.5,0.3,0.7,0.1c0,0,1.1-0.7,2.5,0c1.2,0.6,2.1,2.3,2.1,2.4
										C298.4,434.9,298.5,435,298.6,435.1z"/>
								</g>
							</g>
						</g>
					</g>
				</g>
			</g>
			<path class="st5" d="M303,421l7.3-0.6l0.9-0.1l1.8-0.2c0,0,2.4-54.5,3.3-69.1c0.7-12.6,5.4-40.9,8.4-58.6c0.9-5,1.6-9.1,2.1-11.8
				c0.4-2.1,0.6-3.3,0.6-3.3l-24.8-3.3c0,0,0,0.7-0.1,1.9c-0.1,2.5-0.4,7.4-0.7,13.4c-0.9,16.5-2.2,42.3-2.6,55.4
				C298.1,378.6,303,421,303,421z"/>
			<path class="st10" d="M301.8,289.5l22.9,3c0.9-5,1.6-9.1,2.1-11.8l-24.3-4.6C302.4,278.6,302.1,283.4,301.8,289.5z"/>
			<g>
				<path class="st10" d="M310.4,420.4l0.9-0.1c-0.2-16.9-0.5-59,1.4-76.9c2.5-22.5,8.9-55.2,9-55.6l-0.9-0.3
					c-0.1,0.3-6.5,33.1-9,55.7C309.8,361.2,310.2,403.5,310.4,420.4z"/>
			</g>
		</g>
		<g>
			<g>
				<polygon class="st8" points="362.6,415.9 365.5,425.6 372.4,423.3 369.7,413 				"/>
				<g>
					<g>
						<g>
							<path class="st7" d="M367.5,424.2c0,0-2.3-1.6-3.6-1.1c-1.2,0.5-8.3,11.7-11.5,13.6c-3.1,1.8-1.6,4.1-0.6,5.1
								c1.1,1,26.6-9.8,26.6-9.8s-2-8-3.7-10.1C373.1,419.7,370.3,423.8,367.5,424.2z"/>
							<g>
								<g>
									<path class="st9" d="M363.9,431.5c0.1,0,0.3-0.1,0.4-0.2c0.2-0.2,0.2-0.5,0-0.7c-0.1-0.1-1.7-1.5-3.3-1.7
										c-2.2-0.3-3.2,1.2-3.3,1.3c-0.2,0.2-0.1,0.5,0.1,0.7c0.2,0.2,0.5,0.1,0.7-0.1c0,0,0.8-1.1,2.3-0.9c1.3,0.2,2.8,1.4,2.8,1.5
										C363.7,431.4,363.8,431.5,363.9,431.5z"/>
								</g>
								<g>
									<path class="st9" d="M364.9,429.7c0.1,0,0.3-0.1,0.4-0.2c0.2-0.2,0.2-0.5,0-0.7c-0.1-0.1-1.7-1.5-3.3-1.7
										c-2.2-0.3-3.2,1.2-3.3,1.3c-0.2,0.2-0.1,0.5,0.1,0.7c0.2,0.2,0.5,0.1,0.7-0.1c0,0,0.8-1.1,2.3-0.9c1.3,0.2,2.8,1.4,2.8,1.5
										C364.6,429.6,364.7,429.7,364.9,429.7z"/>
								</g>
								<g>
									<path class="st9" d="M362.4,433.2c0.1,0,0.3-0.1,0.4-0.2c0.2-0.2,0.2-0.5,0-0.7c-0.1-0.1-1.7-1.5-3.3-1.7
										c-2.2-0.3-3.2,1.2-3.3,1.3c-0.2,0.2-0.1,0.5,0.1,0.7c0.2,0.2,0.5,0.1,0.7-0.1c0,0,0.8-1.1,2.3-0.9c1.3,0.2,2.8,1.4,2.8,1.5
										C362.2,433.2,362.3,433.2,362.4,433.2z"/>
								</g>
							</g>
						</g>
					</g>
				</g>
			</g>
			<path class="st5" d="M361.8,418l6.9-2.6l0.8-0.3l1.7-0.6c0,0-12.4-53.2-15.5-67.4c-2.7-12.3-5.9-40.9-7.7-58.7
				c-0.5-5-0.9-9.2-1.2-11.9c-0.2-2.1-0.3-3.3-0.3-3.3l-24.7,3.5c0,0,0.1,0.7,0.4,1.9c0.5,2.5,1.6,7.2,2.9,13.1
				c3.6,16.2,9.2,41.3,12.4,54C345.6,378.6,361.8,418,361.8,418z"/>
			<path class="st10" d="M325.1,291.8l22.9-3.3c-0.5-5-0.9-9.2-1.2-11.9l-24.6,2.1C322.7,281.1,323.8,285.8,325.1,291.8z"/>
			<g>
				<path class="st10" d="M368.7,415.5l0.8-0.3c-4.8-16.2-16.4-56.7-19.4-74.4c-3.7-22.3-6.3-55.6-6.3-55.9l-0.9-0.1
					c0,0.3,2.7,33.6,6.3,56C352.2,358.6,364,399.3,368.7,415.5z"/>
			</g>
		</g>
		<path class="st6" d="M317.4,216.2c-6.8,11-26,21.3-26,21.3c-7.3-1.2-12-3.2-16.7-5.4c1.2-3.3,1.6-6.6,2.2-10.9
			c6.8,1.6,12.7,2.3,12.7,2.3c13.9-7.3,29-41.1,29-41.1C323.6,191.6,317.4,216.2,317.4,216.2z"/>
		<g>
			<path class="st5" d="M357.3,195.8c-0.4-1.5,0.5-31.6,0.5-34.6c-0.1-4.8-0.4-11.5-0.4-11.5c-0.7-14.5-15.4-17.2-15.4-17.2
				c-17.6-3.6-23.7,11.1-24.2,19.3c0,0.6,0,1.1,0,1.7l0,0c-0.2,2.7,4.2,25.2,4.8,30.9C331.4,203.4,342,195.7,357.3,195.8z"/>
			<g>
				<g>
					<path class="st7" d="M361.7,189.5c0,0-5.1,7.8-6.7,16.9c-0.6,3.2-1.3,6.4-2.1,9.1c-0.5,1.6-1,3.4-1.5,5.4
						c-2.2,8.7-4.3,20-4.5,29.6c0,1.8,0,3.6,0.1,5.2c0.7,12.5,5.3,23.4,1.2,27.7c0,0-34.2,7.9-48-3.8c-1.1-1-1.6-2.5-1.2-3.9
						c2-6.1,7.7-24.2,10.1-33.5c2.1-8,3.5-14,3.5-18.9c0-0.4,0-0.8,0-1.2c-0.1-1.6-0.3-3-0.7-4.4c-1.7-5.9-2.1-8,0.2-12.2
						c0.5-0.9,1.1-2.5,1.7-4.4c2.2-7.1,4.9-18.8,4.9-18.8l2.6-0.6l4-0.9l2.4-0.6l12.1-1c0,0,2.1,0.9,4.9,2.3
						c1.6,0.7,3.4,1.6,5.2,2.5C352.7,185.3,359.9,188.4,361.7,189.5z"/>
					<g>
						<g>
							<path class="st6" d="M312.5,222.1c0,0.4,0,0.8,0,1.2c5.6,5.4,15.4,13,27.1,13.8c0.2,0,0.4-0.2,0.4-0.4c0-0.2-0.2-0.4-0.4-0.4
								C327.8,235.5,317.9,227.5,312.5,222.1z"/>
						</g>
						<g>
							<path class="st6" d="M325.9,203.8c6,0.4,11.9-5.6,12.1-5.8c0.2-0.2,0.2-0.4,0-0.6c-0.2-0.2-0.4-0.2-0.6,0
								c-0.1,0.1-6.3,6.3-12,5.5c-0.2,0-0.4,0.1-0.5,0.4c0,0.2,0.1,0.4,0.4,0.5C325.5,203.7,325.7,203.8,325.9,203.8z"/>
						</g>
						<g>
							<path class="st6" d="M335.7,264.9c0.2,0,0.4-0.1,0.4-0.3c0-0.2-0.1-0.4-0.3-0.5c-15.3-2.8-19.8-29.8-19.9-30.1
								c0-0.2-0.3-0.4-0.5-0.3c-0.2,0-0.4,0.3-0.3,0.5C315.3,235.2,319.9,262,335.7,264.9C335.7,264.9,335.7,264.9,335.7,264.9z"/>
						</g>
						<g>
							<path class="st6" d="M330.2,256.4c0.1,0,0.3-0.1,0.4-0.2c0.1-0.2,0.1-0.5-0.1-0.6c-7.8-5.6-8.6-13.1-8.6-13.2
								c0-0.2-0.2-0.4-0.5-0.4c-0.2,0-0.4,0.2-0.4,0.5c0,0.3,0.7,8,8.9,13.8C330,256.4,330.1,256.4,330.2,256.4z"/>
						</g>
					</g>
				</g>
			</g>
			<g>
				<g>
					<g>
						<path class="st11" d="M323.6,154.9c0,0-2.2-3.4-4.2-0.9c-2,2.5,0.1,10.6,4.6,9L323.6,154.9z"/>
						<path class="st9" d="M322.1,162.3c0,0.5-0.4,0.8-0.9,0.8c-0.4,0-0.8-0.4-0.8-0.9c0-0.5,0.4-0.8,0.9-0.8
							C321.8,161.4,322.1,161.8,322.1,162.3z"/>
						<g>
							<path class="st12" d="M323.2,160.5c-0.2,0-0.3-0.1-0.3-0.3c-0.5-2.5-3-3.6-3-3.6c-0.2-0.1-0.3-0.3-0.2-0.5
								c0.1-0.2,0.3-0.3,0.5-0.2c0.1,0.1,2.8,1.3,3.5,4.2c0,0.2-0.1,0.4-0.3,0.4C323.3,160.5,323.2,160.5,323.2,160.5z"/>
						</g>
						<g>
							<path class="st12" d="M320.7,159.1c-0.1,0-0.1,0-0.2-0.1c-0.2-0.1-0.2-0.4-0.1-0.5c0,0,0.5-0.7,1.5-1c0.2-0.1,0.4,0,0.5,0.2
								c0.1,0.2,0,0.4-0.2,0.5c-0.7,0.3-1.1,0.8-1.1,0.8C321,159,320.8,159.1,320.7,159.1z"/>
						</g>
					</g>
					<path class="st8" d="M341.3,172.6l-0.6,8.7c0,0-4.6,4.1-8,4.2c-3.4,0.1-4.3-4.1-4.3-4.1l0.6-9L341.3,172.6z"/>
					<path class="st11" d="M341.3,173.6l-0.2,3.8c-2.4,2.4-6.5,3.1-12.3,1.8l0.4-5.9L341.3,173.6z"/>
					<path class="st8" d="M321.9,158.4c0,0.9,0.1,1.9,0.2,2.8c0.7,6.3,4,13.4,8.8,14.8c10.2,3.2,15.1-5,17.1-11.2
						c0.2-0.7-0.1-1.5,0.1-2.3c0.5-1.9,1.4-4.1,1.7-6.3c0.2-1.5,0.4-3,0.5-4.3c0.4-3.8-1.5-7.4-4.7-9c-4.6-2.3-11.8-4.4-18.9-0.7
						c-2.6,1.4-4.4,4.1-4.7,7.3C321.9,152,321.7,155.1,321.9,158.4z"/>
					<g>
						<path class="st11" d="M334.3,164.2c0.2,0,0.4-0.1,0.4-0.3c0.1-0.2-0.1-0.5-0.3-0.5L333,163l2.2-5.2c0.1-0.2,0-0.5-0.2-0.6
							c-0.2-0.1-0.4,0-0.5,0.2l-2.7,6.1L334.3,164.2C334.2,164.2,334.2,164.2,334.3,164.2z"/>
					</g>
					<path class="st5" d="M326.6,148.1c-4.2,1.6-3.2,6.8-4.7,9.2c-0.1,0.2-0.2,0.2-0.3,0.1c-0.2-3.4,0-6.6,0.2-9
						c0.3-3.2,2.1-6,4.9-7.4c7.5-3.8,15-1.6,20,0.7c3.4,1.6,5.4,5.4,5,9.2c-0.2,1.4-0.3,2.9-0.6,4.4c-0.7,0.4-2.4,0.4-2.5,1.6
						c-0.4,3-0.6,5-1.2,4.8c-1-0.4-1.4-4-0.1-6.3c0,0-0.8-1.6-4.5-3.4c-4.7-2.3-9.2-5.5-9.2-5.5s-1.8-1.3-2.4-2.6
						C331.1,144,329.8,146.9,326.6,148.1z"/>
					<path class="st5" d="M330,156.8c-0.1,0.9-0.6,1.6-1.1,1.6c-0.6,0-1-0.8-0.9-1.7c0.1-0.9,0.6-1.6,1.1-1.6
						C329.6,155.1,330,155.9,330,156.8z"/>
					<path class="st5" d="M341,157.6c-0.1,0.9-0.6,1.6-1.1,1.6c-0.6,0-1-0.8-0.9-1.7c0.1-0.9,0.6-1.6,1.1-1.6
						C340.7,155.9,341.1,156.7,341,157.6z"/>
					<path class="st5" d="M326.5,152.2c0.8-0.1,2.5-0.3,4.3-0.1c0.5,0,0.8,0.4,0.7,0.8l0,0c-0.1,0.3-0.4,0.5-0.8,0.4
						c-1.2-0.2-4.4-0.4-5.9,0c0-0.2,0.1-0.4,0.4-0.6C325.5,152.4,326,152.2,326.5,152.2z"/>
					<path class="st5" d="M342.9,153.5c-0.8-0.2-2.4-0.6-4.2-0.7c-0.5,0-0.9,0.3-0.8,0.7l0,0c0,0.3,0.3,0.5,0.7,0.5
						c1.2,0,4.4,0.3,5.8,0.9c0.1-0.2-0.1-0.5-0.3-0.7C343.8,153.9,343.4,153.7,342.9,153.5z"/>
					<path class="st9" d="M329.6,166.3c0.2,1.5,1,4.3,4.4,4.5c3.4,0.2,4.5-2.2,4.9-3.9L329.6,166.3z"/>
					<g>
						<path class="st11" d="M333.8,173.4c-1-0.1-1.8-0.7-1.8-0.7c-0.2-0.1-0.2-0.4-0.1-0.6c0.1-0.2,0.4-0.2,0.6-0.1l0,0
							c0,0,0.7,0.5,1.4,0.5c0.8,0.1,1.5-0.3,1.5-0.3c0.2-0.1,0.4,0,0.5,0.2c0.1,0.2,0,0.5-0.2,0.6
							C335.7,173,334.8,173.4,333.8,173.4z"/>
					</g>
				</g>
				<g>
					<path class="st8" d="M348.6,156.6c0,0,3.1-3.4,4.6-0.7c1.5,2.7-1.3,10.2-5.3,8L348.6,156.6z"/>
					<path class="st9" d="M350.4,164.3c0,0.5-0.4,0.8-0.9,0.8c-0.4,0-0.8-0.4-0.8-0.9c0-0.5,0.4-0.8,0.9-0.8
						C350.1,163.4,350.5,163.8,350.4,164.3z"/>
					<g>
						<g>
							<path class="st11" d="M348.9,161.6c0.2,0,0.3-0.1,0.4-0.2c0.8-2.3,3.2-3.1,3.2-3.1c0.2-0.1,0.3-0.3,0.2-0.5
								c-0.1-0.2-0.2-0.3-0.4-0.2c-0.1,0-2.8,0.9-3.7,3.6C348.5,161.3,348.6,161.5,348.9,161.6C348.8,161.6,348.9,161.6,348.9,161.6
								z"/>
						</g>
					</g>
					<g>
						<path class="st11" d="M351.3,160.6c0.1,0,0.1,0,0.2,0c0.2-0.1,0.2-0.3,0.1-0.5c0,0-0.4-0.7-1.2-1.2c-0.2-0.1-0.4,0-0.5,0.1
							c-0.1,0.2,0,0.4,0.1,0.5c0.7,0.4,0.9,0.9,0.9,0.9C351.1,160.5,351.2,160.6,351.3,160.6z"/>
					</g>
				</g>
			</g>
		</g>
		<g>
			<path class="st5" d="M278.2,278.1v-60.4c0-2.9-2.4-5.3-5.3-5.3h-1.3c-2.9,0-5.3,2.4-5.3,5.3v60.4c0,2.9,2.4,5.3,5.3,5.3h1.3
				C275.9,283.4,278.2,281,278.2,278.1z"/>
			<path class="st10" d="M324.2,264v-32.3c0-7.3-6-13.3-13.3-13.3h-32.8v58.9h32.8C318.3,277.3,324.2,271.4,324.2,264z"/>
		</g>
		<path class="st8" d="M295.5,218.4c0,0-1.4,4.4-3.3,5.5c-1.9,1.1-0.9-5.2-0.9-5.2s-1.3,7.5-3.1,7.6c-1.9,0-0.8-7.3-0.8-7.3
			s-1.6,5-3.1,5.1c-1.4,0.2-0.9-5.2-0.9-5.2s-1.7,3.8-2.8,4.1c-1.1,0.2-1.2-4.4-0.4-6.6c0.8-2.3,3.6-0.6,3.6-0.6s2.8-0.5,3.7,0.5
			c0,0,2.5-0.8,3.9,0C291.3,216.2,295.4,215.4,295.5,218.4z"/>
		<g>
			<g>
				<g>
					<path class="st8" d="M317.4,266.2l-1.7,0.7c-1.5,0.6-3.1,0.2-4.4-0.9c-0.6-0.5-1.4-1.4-1.9-1.7c-1.3-0.7-4.2-1.6-5.1-1.3
						c-0.9,0.3-0.1,1.8,0.8,2.2c0.9,0.4,2.1,0.9,3,1.6c0.9,0.7-2.8,4.6-4.5,5.8c-1.7,1.2-5.3,1.6-5,3.3c0.3,1.7,2.8,0.9,2.8,0.9
						s-0.1,1.7,2.4,2c0,0,0.2,1.5,1.8,1.7c0,0,0.6,1.8,2.3,1.6c1.7-0.2,7-0.8,13.9-10.3L317.4,266.2z"/>
				</g>
			</g>
			<path class="st7" d="M361.7,189.5c0,0,4.4,37.1,0.8,50.9c-3.5,13.8-41.3,32.7-41.3,32.7l-5.6-6.6c0,0,28.7-21.2,35.2-30.7
				l0.9-28.7C351.8,207.2,352.9,198.2,361.7,189.5z"/>
		</g>
	</g>
	<g>
		<g>
			<g>
				<polygon class="st8" points="456.3,414.7 456.9,425 448.5,425.2 447.5,414.3 				"/>
				<g>
					<path class="st6" d="M453.6,423.5c0,0-4.3-1-5.5-0.9c-1.2,0.1-8.8,9.2-11.4,9.8c-4.8,1.1-4.5,8.7-1.6,8.9
						c8.5,0.8,22.9-3.4,22.9-3.4s1-9.7,0.3-12.7C457.6,422.2,456,424.3,453.6,423.5z"/>
					<g>
						<g>
							<path class="st9" d="M446.8,432.1c0.2,0,0.3,0,0.5-0.1c0.3-0.2,0.3-0.6,0.1-0.8c-0.1-0.1-1.6-2.2-3.4-2.8
								c-2.4-0.9-4.1,0.6-4.1,0.7c-0.2,0.2-0.3,0.6,0,0.8c0.2,0.2,0.6,0.3,0.8,0c0,0,1.2-1.1,2.9-0.4c1.5,0.5,2.8,2.4,2.9,2.4
								C446.6,432,446.7,432,446.8,432.1z"/>
						</g>
						<g>
							<path class="st9" d="M448.4,430.2c0.2,0,0.3,0,0.5-0.1c0.3-0.2,0.3-0.6,0.1-0.8c-0.1-0.1-1.6-2.2-3.4-2.8
								c-2.4-0.9-4.1,0.6-4.1,0.7c-0.2,0.2-0.3,0.6,0,0.8c0.2,0.2,0.6,0.3,0.8,0c0,0,1.2-1.1,2.9-0.4c1.5,0.6,2.8,2.4,2.9,2.4
								C448.1,430.1,448.2,430.2,448.4,430.2z"/>
						</g>
						<g>
							<path class="st9" d="M444.6,433.7c0.2,0,0.3,0,0.5-0.1c0.3-0.2,0.3-0.6,0.1-0.8c-0.1-0.1-1.6-2.2-3.4-2.8
								c-2.4-0.9-4.1,0.6-4.1,0.7c-0.2,0.2-0.3,0.6,0,0.8c0.2,0.2,0.6,0.3,0.8,0c0,0,1.2-1.1,2.9-0.4c1.5,0.6,2.8,2.4,2.9,2.4
								C444.3,433.6,444.5,433.6,444.6,433.7z"/>
						</g>
					</g>
				</g>
			</g>
			<g>
				<path class="st5" d="M425.5,288.8c0,0,0.2,2.4,0.5,6.4c0.1,1.1,0.2,2.2,0.3,3.5c1.1,13.5,3.2,37.9,5.5,55.2
					c3.2,24.3,13.3,64.2,13.3,64.2l10.4-0.4l1,0l2.5-0.1c0,0-1.7-25.2-4-47.1c-1.5-14.4-2.3-48.6-2.8-70.2
					c-0.2-11.1-0.3-18.9-0.3-18.9L425.5,288.8z"/>
			</g>
			<path class="st10" d="M425.5,288.8c0,0,0.2,2.4,0.5,6.4c0.1,1.1,0.4,4.9,0.5,6.2c4.7,0.3,19.5-0.4,25.8-1.2
				c-0.2-11.1-0.3-18.9-0.3-18.9L425.5,288.8z"/>
			<g>
				<path class="st10" d="M446.4,295.1c0,0.8,1,79.5,9.1,122.7l1,0c-8.2-43.1-9.1-121.9-9.2-122.7L446.4,295.1z"/>
			</g>
		</g>
		<g>
			<g>
				<polygon class="st8" points="393.5,419.4 393.8,428.8 402.4,428.3 402.5,418.4 				"/>
				<g>
					<g>
						<g>
							<path class="st6" d="M396,428.3c0,0-1.9-2.4-3.3-2.3c-1.4,0.1-12.5,9.2-16.3,9.9c-3.8,0.8-3,3.6-2.3,5c0.7,1.4,30.5-1,30.5-1
								s0.7-8.9-0.3-11.6C403.3,425.7,399,428.9,396,428.3z"/>
							<g>
								<g>
									<path class="st9" d="M389.9,434.6c0.1,0,0.3,0,0.4-0.1c0.3-0.2,0.3-0.5,0.2-0.7c-0.1-0.1-1.2-2.1-2.8-2.9
										c-2.1-1-3.7,0.2-3.8,0.2c-0.2,0.2-0.3,0.5-0.1,0.7c0.2,0.2,0.5,0.3,0.8,0.1c0,0,1.2-0.8,2.7-0.1c1.3,0.6,2.4,2.4,2.4,2.4
										C389.7,434.5,389.8,434.6,389.9,434.6z"/>
								</g>
								<g>
									<path class="st9" d="M391.5,433.1c0.1,0,0.3,0,0.4-0.1c0.3-0.1,0.3-0.5,0.2-0.7c-0.1-0.1-1.2-2.1-2.8-2.9
										c-2.1-1-3.7,0.2-3.8,0.2c-0.2,0.2-0.3,0.5-0.1,0.8c0.2,0.2,0.5,0.3,0.8,0.1c0,0,1.2-0.8,2.7-0.1c1.3,0.6,2.4,2.4,2.4,2.4
										C391.3,433,391.4,433,391.5,433.1z"/>
								</g>
								<g>
									<path class="st9" d="M387.8,435.9c0.1,0,0.3,0,0.4-0.1c0.3-0.2,0.3-0.5,0.2-0.7c-0.1-0.1-1.2-2.1-2.8-2.9
										c-2.1-1-3.7,0.2-3.8,0.2c-0.2,0.2-0.3,0.5-0.1,0.7c0.2,0.2,0.5,0.3,0.8,0.1c0,0,1.2-0.8,2.7-0.1c1.3,0.6,2.4,2.4,2.4,2.4
										C387.6,435.7,387.7,435.8,387.8,435.9z"/>
								</g>
							</g>
						</g>
					</g>
				</g>
			</g>
			<path class="st5" d="M391.9,421.9l8.7-0.6l1-0.1l2.1-0.2c0,0,5.3-50.6,7-64.1c1.4-11.7,8.2-38,12.5-54.4c1.2-4.6,2.3-8.5,3-11
				c0.5-2,0.8-3.1,0.8-3.1l-28.9-2.8c0,0-0.1,0.6-0.2,1.8c-0.3,2.3-0.8,6.8-1.5,12.5c-1.8,15.3-4.6,39.2-5.6,51.4
				C388,382.6,391.9,421.9,391.9,421.9z"/>
			<path class="st10" d="M396.4,299.9l26.8,2.6c1.2-4.6,2.3-8.5,3-11l-28.3-4.1C397.6,289.8,397,294.3,396.4,299.9z"/>
			<g>
				<path class="st10" d="M400.6,421.2l1-0.1c0.5-15.7,2-54.7,5.2-71.3c3.9-20.9,13-51.3,13.1-51.6l-1-0.3
					c-0.1,0.3-9.2,30.8-13.1,51.7C402.6,366.3,401.1,405.6,400.6,421.2z"/>
			</g>
		</g>
		<g>
			<path class="st8" d="M373.3,253.6c2.5,14.6,14.4,3.9,15.4-7.5c0.2-2.6,0.3-5.2,0.3-7.7c0-2.4-0.2-4.6-0.3-6.7
				c0-0.4-0.1-0.8-0.1-1.2c-0.4-5-1.1-8.4-1.1-8.4l-7.8-9.5c0,0-0.9,2.7-2.1,6.8c-1.1,3.8-2.3,8.8-3.3,14.1
				c-0.3,1.6-0.6,3.2-0.8,4.8C372.8,243.8,372.6,249.2,373.3,253.6z"/>
			<path class="st11" d="M377.7,219.3c2.3,4.2,6.1,9.8,11,12.4c0-0.4-0.1-0.8-0.1-1.2c-0.4-5-1.1-8.4-1.1-8.4l-7.8-9.5
				C379.7,212.5,378.8,215.2,377.7,219.3z"/>
			<path class="st11" d="M373.6,238.3c2.8,1.7,12,0.9,15.4,0.1c0-2.8-0.2-5.5-0.4-7.8l-14.2,2.9
				C374.1,235.1,373.8,236.7,373.6,238.3z"/>
		</g>
		<g>
			<path class="st8" d="M470.4,253.6c-2.5,14.6-14.4,3.9-15.4-7.5c-0.2-2.6-0.3-5.2-0.3-7.7c0-2.4,0.2-4.6,0.3-6.7
				c0-0.4,0.1-0.8,0.1-1.2c0.4-5,1.1-8.4,1.1-8.4l7.8-9.5c0,0,0.9,2.7,2.1,6.8c1.1,3.8,2.3,8.8,3.3,14.1c0.3,1.6,0.6,3.2,0.8,4.8
				C470.9,243.8,471.2,249.2,470.4,253.6z"/>
			<path class="st11" d="M466,219.3c-2.3,4.2-6.1,9.8-11,12.4c0-0.4,0.1-0.8,0.1-1.2c0.4-5,1.1-8.4,1.1-8.4l7.8-9.5
				C464,212.5,464.9,215.2,466,219.3z"/>
			<path class="st11" d="M470.1,238.3c-2.8,1.7-12,0.9-15.4,0.1c0-2.8,0.2-5.5,0.4-7.8l14.2,2.9
				C469.6,235.1,469.9,236.7,470.1,238.3z"/>
		</g>
		<path class="st7" d="M388.5,189.5c0,0-11.2,19.8-13.1,26.5c0,0,7.7,12.8,14.6,14.2l2.6-8.7C392.7,221.5,392.9,194.2,388.5,189.5z"
			/>
		<g>
			<path class="st7" d="M414.3,179.3l-25.8,10.3c0,0,5.2,44.2,7.2,61.2c2,17-2.7,42.2-2.7,42.2s40.1,6.1,60.6-1.1
				c2.9-24.1,0.6-62.6-2.7-102.3l-24.8-10.3H414.3z"/>
			<g>
				<g>
					<path class="st6" d="M408.2,225.4c4.1,4.3,9.9,8.4,18,10.7c0.3,0.1,0.6-0.1,0.7-0.4c0,0,0,0,0,0c0-0.3-0.1-0.5-0.4-0.6
						c-7.9-2.3-13.5-6.2-17.6-10.4c-0.3-0.3-0.8-0.1-0.9,0.3c0,0,0,0,0,0C408,225.1,408,225.3,408.2,225.4z"/>
				</g>
				<g>
					<path class="st6" d="M408.4,217.3L408.4,217.3c0,0.1,0,0.2,0.1,0.3c0.3,0.5,0.6,1,0.9,1.5c2,2.8,5.6,6.5,12.1,8.2
						c0,0,0.1,0,0.1,0c0.2,0,0.4-0.1,0.5-0.4c0.1-0.3-0.1-0.5-0.3-0.6c-7-1.9-10.7-6.1-12.5-9.3C409,216.7,408.4,216.8,408.4,217.3z
						"/>
				</g>
				<g>
					<g>
						<path class="st6" d="M409.2,195.4C409.2,195.4,409.2,195.4,409.2,195.4c0,0.3,0.3,0.5,0.6,0.5c5.9-1.1,10.5-3.8,13.6-6
							c4.2-3.1,6.5-6.1,6.6-6.2c0.2-0.2,0.1-0.5-0.1-0.7c-0.2-0.2-0.5-0.1-0.7,0.1c-0.1,0.1-7.2,9.4-19.6,11.8
							C409.4,194.9,409.2,195.1,409.2,195.4z"/>
					</g>
				</g>
			</g>
		</g>
		<path class="st7" d="M450.9,189.5l16,23.2c0,0-7.1,13.4-14.1,14.8c0,0-7.2-12.7-8.1-19.1C443.9,201.9,448.4,190.1,450.9,189.5z"/>
		<g>
			<path class="st5" d="M405.1,153.7c0,9,5.5,15.2,14.5,15.2s15.3-6.7,15.3-15.7c0-9-5.3-15.8-14.3-15.8
				C409.8,137.4,405.1,144.7,405.1,153.7z"/>
			<path class="st5" d="M405.6,148.7c0,0-6.7-6.6-4.2-9.8c2.5-3.1,5.8-0.1,6.8-3.1c1-3,1.4-6.8,5.5-5.3c4.1,1.6,4.3,4.1,8.1,1.8
				c3.9-2.3,3,1.6,6.4,3.3c3.4,1.7,5.8,1.4,5.2,4.7c-0.6,3.3,3.3,3.9,1.7,7.6c-1.6,3.6-3.4,1.8-3.4,1.8L405.6,148.7z"/>
			<g>
				<path class="st11" d="M407.1,157.5c0,0-2.5-3.3-4.4-0.6c-1.9,2.8,0.8,10.9,5.3,8.9L407.1,157.5z"/>
				<g>
					<path class="st12" d="M407.1,163.3c-0.2,0-0.3-0.1-0.4-0.3c-0.7-2.5-3.3-3.5-3.3-3.5c-0.2-0.1-0.3-0.3-0.2-0.5
						c0.1-0.2,0.3-0.3,0.5-0.2c0.1,0,3,1.2,3.8,4.1c0.1,0.2-0.1,0.4-0.3,0.5C407.1,163.3,407.1,163.3,407.1,163.3z"/>
				</g>
				<g>
					<g>
						<path class="st12" d="M404.4,162.1c-0.1,0-0.1,0-0.2-0.1c-0.2-0.1-0.2-0.4-0.1-0.5c0,0,0.5-0.7,1.4-1.2c0.2-0.1,0.4,0,0.5,0.2
							c0.1,0.2,0,0.4-0.2,0.5c-0.7,0.3-1.1,0.9-1.1,0.9C404.7,162,404.6,162.1,404.4,162.1z"/>
					</g>
				</g>
			</g>
			<g>
				<path class="st11" d="M432.8,157.5c0,0,2.5-3.3,4.4-0.6c1.9,2.8-0.8,10.9-5.3,8.9L432.8,157.5z"/>
				<g>
					<path class="st12" d="M432.9,163.3c0.2,0,0.3-0.1,0.4-0.3c0.7-2.5,3.3-3.5,3.3-3.5c0.2-0.1,0.3-0.3,0.2-0.5
						c-0.1-0.2-0.3-0.3-0.5-0.2c-0.1,0-3,1.2-3.8,4.1c-0.1,0.2,0.1,0.4,0.3,0.5C432.8,163.3,432.8,163.3,432.9,163.3z"/>
				</g>
				<g>
					<path class="st12" d="M435.5,162.1c0.1,0,0.1,0,0.2-0.1c0.2-0.1,0.2-0.4,0.1-0.5c0,0-0.5-0.7-1.4-1.2c-0.2-0.1-0.4,0-0.5,0.2
						c-0.1,0.2,0,0.4,0.2,0.5c0.7,0.3,1.1,0.9,1.1,0.9C435.2,162,435.4,162.1,435.5,162.1z"/>
				</g>
			</g>
			<path class="st8" d="M426.1,172.8v8.1c0,0-2.2,4.9-7.4,4.9c-3.3,0-4.4-4.6-4.4-4.6v-7.8L426.1,172.8z"/>
			<path class="st11" d="M426.1,172.8v3.6c-2.2,2.4-6.1,3-11.8,2.2v-5.2L426.1,172.8z"/>
			<path class="st8" d="M405.8,157.3c0.1,1.7,0.3,3.5,0.7,5.3c1.1,6,3.5,11.8,8.8,13.7c11.9,4.3,16.2-6,17.9-11.9
				c0.2-0.7,0.4-1.4,0.5-2.2c0.3-1.4,0.5-3,0.6-4.6c0.2-1.9,0.3-3.9,0.4-5.6c0.2-3.6-2-7-5.4-8.3c-4.9-1.9-12.3-3.4-19.3,0.6
				c-2.6,1.5-4.2,4.2-4.3,7.2C405.6,153.2,405.6,155.1,405.8,157.3z"/>
			<path class="st9" d="M424.2,167.7c-0.3,1.5-1.2,4.1-4.5,4.2c-3.3,0-4.2-2.4-4.5-4.1L424.2,167.7z"/>
			<path class="st5" d="M405.8,157.3c0.1,1.7,0.3,3.5,0.7,5.3c1.1,6,3.5,11.8,8.8,13.7c11.9,4.3,16.2-6,17.9-11.9
				c0.2-0.7,0.4-1.4,0.5-2.2c0.3-1.4,0.5-3,0.6-4.6h-1.7c-0.4,1.1-2.3,7.9-2.9,8.8c-1.4-3.2-8.2-1.1-8.2-1.1l0,0
				c-0.4,0.1-0.8,0.2-1.3,0.2c-0.4,0-0.9-0.1-1.3-0.2c0,0-6.8-2.3-8.2,0.8c-0.6-1-2.9-7.9-3.3-8.6L405.8,157.3z M420,166.8
				c7.8-1,6.6,3.1,6.6,3.1c-0.9,0.8-1.7,1.4-2.2,1.7c-1.7,0.9-3.4,1.3-4.6,1.2c-1.2-0.1-1.5,0.2-4.5-1.4c-0.5-0.3-1.1-0.7-1.6-1.2
				c0,0,0,0,0,0v0C413.5,169.4,412.2,165.5,420,166.8z"/>
			<path class="st5" d="M414.3,158.6c0,0.9-0.4,1.6-1,1.6c-0.5,0-1-0.7-1-1.6c0-0.9,0.4-1.6,1-1.6
				C413.8,157,414.3,157.7,414.3,158.6z"/>
			<path class="st5" d="M425.9,158.6c0,0.9-0.4,1.6-1,1.6c-0.5,0-1-0.7-1-1.6s0.4-1.6,1-1.6C425.5,157,425.9,157.7,425.9,158.6z"/>
			<path class="st5" d="M409.3,154.8c0,0,3.3-2.5,6.4-2l0.2,1.6c0,0-4.2,0.8-6.1,2.2C409.4,156.1,409.2,155.5,409.3,154.8z"/>
			<path class="st5" d="M429.4,154.8c0,0-3.3-2.5-6.4-2l-0.2,1.6c0,0,4.2,0.8,6.1,2.2C429.3,156.1,429.5,155.5,429.4,154.8z"/>
			<g>
				<path class="st11" d="M420.1,164.6c0.6,0,1.3-0.3,1.4-0.3c0.2-0.1,0.3-0.3,0.2-0.5c-0.1-0.2-0.3-0.3-0.5-0.2
					c-0.3,0.1-1.2,0.4-1.5,0.1c-0.1,0-0.2-0.1-0.2-0.4c-0.1-1.3,0.2-5.8,0.2-5.9c0-0.2-0.1-0.4-0.4-0.4c-0.2,0-0.4,0.1-0.4,0.4
					c0,0.2-0.4,4.6-0.2,6c0.1,0.5,0.3,0.8,0.6,0.9C419.5,164.6,419.8,164.6,420.1,164.6z"/>
			</g>
			<path class="st5" d="M434.2,157.6h-1.7c0.2-1.7,0.5-4.8-1-5.3c-4.5-1.4,1.3-4.6-0.7-6.2c-2-1.6-7.1-0.9-10.7-1
				c-3.6-0.1-9.3-0.1-10.7,0.3c-1.4,0.3-0.6,2.6-0.1,4.4c0.5,1.8-1.7,3.8-2.1,5.6c-0.1,0.5-0.1,1.3,0,2.2h-1.5
				c-0.2-2.3-0.2-4.4-0.2-6.1c0.1-3,1.7-5.7,4.3-7.2c7-4,14.5-2.5,19.3-0.6c3.4,1.3,5.6,4.6,5.4,8.3
				C434.6,153.7,434.4,155.7,434.2,157.6z"/>
		</g>
		<g>
			<path class="st5" d="M500,239.7c-1.5-0.7-2.7-1.4-3.9-2c-10.8-5.7-23.2-9.9-36.7-12.7c-22.7-4.6-43.2-5.6-63-2.8
				c-17,2.4-30.4,7-42.2,11c-11.6,4-20.9,7.2-30,7.1v8.3c10.5,0.1,20.9-3.4,32.7-7.5c23.1-8,51.9-17.9,100.8-7.9
				c18.4,3.8,32.1,10,42.3,16.3V239.7z"/>
		</g>
		<g>
			<path class="st8" d="M454.2,234.8c0,0,0.1-2.6,0.9-6.4c0.4-1.9,2.1-3.6,3.1-1.8c0.7,1.4,0.4,2.9,0.8,4.4c0,0,0.2-1,0.6-3.5
				c0.3-2.3,1.8-2.7,2.5-1.3c0.7,1.3,0.3,1.4,0.3,2.5c0.1,1.5,0.1,3.5,0.1,3.5s-0.3-2.2,0.6-5.1c0.4-1.3,0.7-2.8,2.5-1.6
				c0.9,0.6,0.9,3.1,1.2,5.7c0,0-0.3-3.1,0.9-4.5c1-1.1,2.2-1.3,2.4,0.6c0.2,2.5,0.1,3.2,0.1,4.7c0,1.5-1,4.1-2.5,4.1
				c-1.5,0.1-2.2-0.8-3.2-0.5c-1,0.3-2.4,0.9-3.3,0.6c-0.9-0.3-1.6-0.2-2.7,0.2C457.3,236.8,454.7,236.3,454.2,234.8z"/>
		</g>
		<g>
			<path class="st8" d="M389.5,234.8c0,0-0.1-2.6-0.9-6.4c-0.4-1.9-2.1-3.6-3.1-1.8c-0.7,1.4-0.4,2.9-0.8,4.4c0,0-0.2-1-0.6-3.5
				c-0.3-2.3-1.8-2.7-2.5-1.3c-0.7,1.3-0.3,1.4-0.3,2.5c-0.1,1.5-0.1,3.5-0.1,3.5s0.3-2.2-0.6-5.1c-0.4-1.3-0.7-2.8-2.5-1.6
				c-0.9,0.6-0.9,3.1-1.2,5.7c0,0,0.3-3.1-0.9-4.5c-1-1.1-2.2-1.3-2.4,0.6c-0.2,2.5-0.1,3.2-0.1,4.7c0,1.5,1,4.1,2.5,4.1
				c1.5,0.1,2.2-0.8,3.2-0.5c1,0.3,2.4,0.9,3.3,0.6c0.9-0.3,1.6-0.2,2.7,0.2C386.4,236.8,389.1,236.3,389.5,234.8z"/>
		</g>
	</g>
	<g>
		<g>
			<path class="st8" d="M59,321.3c0,0-0.5,40.8-3,47.6c-3.3,9.3-15.4,53.8-15.4,53.8l9.7,0.4c0,0,22.2-42,24.5-53.6
				C77,358,78.9,328,78.9,328L59,321.3z"/>
			<g>
				<g>
					<g>
						<path class="st6" d="M48.1,420.4c0,0,2.5-2.1,3.9-1.7c1.5,0.4,11,12.3,14.8,13.9c3.8,1.7,2.4,6.5,0.7,6.7
							c-1.9,0.2-31.1-7.4-31.1-7.4s1.4-10.7,3-13.3C41.1,416.1,44.8,420.4,48.1,420.4z"/>
						<g>
							<g>
								<path class="st9" d="M53,428.3c-0.1,0-0.3,0-0.4-0.1c-0.2-0.2-0.2-0.6,0-0.8c0.1-0.1,1.8-1.9,3.6-2.4c2.4-0.6,3.8,1,3.9,1.1
									c0.2,0.2,0.2,0.6-0.1,0.8c-0.2,0.2-0.6,0.2-0.8-0.1c0,0-1-1.1-2.7-0.7c-1.5,0.4-3,2-3,2C53.3,428.2,53.2,428.2,53,428.3z"/>
							</g>
							<g>
								<path class="st9" d="M51.7,426.3c-0.1,0-0.3,0-0.4-0.1c-0.2-0.2-0.2-0.6,0-0.8c0.1-0.1,1.8-1.9,3.6-2.4
									c2.4-0.6,3.8,1,3.9,1.1c0.2,0.2,0.2,0.6-0.1,0.8c-0.2,0.2-0.6,0.2-0.8-0.1c0,0-1-1.1-2.7-0.7c-1.5,0.4-3,2-3,2
									C52,426.3,51.9,426.3,51.7,426.3z"/>
							</g>
							<g>
								<path class="st9" d="M55,430c-0.1,0-0.3,0-0.4-0.1c-0.2-0.2-0.2-0.6,0-0.8c0.1-0.1,1.8-1.9,3.6-2.4c2.4-0.6,3.8,1,3.9,1.1
									c0.2,0.2,0.2,0.6-0.1,0.8c-0.2,0.2-0.6,0.2-0.8-0.1c0,0-1-1.1-2.7-0.7c-1.5,0.4-3,2-3,2C55.3,430,55.1,430,55,430z"/>
							</g>
						</g>
					</g>
				</g>
			</g>
		</g>
		<g>
			<path class="st8" d="M112.2,301.6c0,0-4.3,38.2-7.4,59.1c-4.3,29.2-11.1,62.5-11.1,62.5c-3.2,2.4-6.6,2.6-9.7,1.1l6.7-106.5
				L112.2,301.6z"/>
			<g>
				<g>
					<path class="st6" d="M90.7,424.7c0,0,2-2.5,3.6-2.4c1.5,0.2,13.1,10,17.1,10.9c4,0.9,3.6,6,2,6.5c-1.9,0.6-31.9-1.4-31.9-1.4
						s-0.6-10.8,0.5-13.6C83,421.8,87.5,425.3,90.7,424.7z"/>
					<g>
						<g>
							<path class="st9" d="M97,431.5c-0.1,0-0.3,0-0.4-0.1c-0.3-0.2-0.4-0.5-0.2-0.8c0.1-0.1,1.4-2.2,3.1-3c2.3-1,3.9,0.3,4,0.3
								c0.2,0.2,0.3,0.6,0.1,0.8c-0.2,0.2-0.6,0.3-0.8,0.1c0,0-1.2-0.9-2.8-0.2c-1.4,0.6-2.6,2.5-2.6,2.6
								C97.3,431.4,97.2,431.5,97,431.5z"/>
						</g>
						<g>
							<path class="st9" d="M95.4,429.8c-0.1,0-0.3,0-0.4-0.1c-0.3-0.2-0.4-0.5-0.2-0.8c0.1-0.1,1.4-2.2,3.1-3
								c2.3-1.1,3.9,0.3,4,0.3c0.2,0.2,0.3,0.6,0.1,0.8c-0.2,0.2-0.6,0.3-0.8,0.1c0,0-1.2-0.9-2.8-0.2c-1.4,0.6-2.6,2.5-2.6,2.6
								C95.6,429.7,95.5,429.8,95.4,429.8z"/>
						</g>
						<g>
							<path class="st9" d="M99.3,432.9c-0.1,0-0.3,0-0.4-0.1c-0.3-0.2-0.4-0.5-0.2-0.8c0.1-0.1,1.4-2.2,3.1-3
								c2.3-1.1,3.9,0.3,4,0.3c0.2,0.2,0.3,0.6,0.1,0.8c-0.2,0.2-0.6,0.3-0.8,0.1c0,0-1.2-0.9-2.8-0.2c-1.4,0.6-2.6,2.5-2.6,2.6
								C99.5,432.7,99.4,432.8,99.3,432.9z"/>
						</g>
					</g>
				</g>
			</g>
		</g>
		<g>
			<path class="st8" d="M134.1,247.8c-0.2,1.7-1,3.6-2.2,5.3c-2.8,4-7.8,7.1-12.5,5.4c-2.6-0.9-4.8-6.4-6-9.2
				c-1.2-2.6-1.8-4.8-1.8-4.8l11.3,0.6l11.2,0.6C134.2,246.3,134.2,247,134.1,247.8z"/>
			<path class="st11" d="M134.1,247.8c-0.2,1.7-1,3.6-2.2,5.3c-5.1-0.6-7.1,2.2-9.7,0c-1.9-1.6-1-4.4-1-4.4L134.1,247.8z"/>
			<path class="st11" d="M123.8,247.9l-10.4,1.3c-1.2-2.6-1.8-4.8-1.8-4.8l11.3,0.6L123.8,247.9z"/>
			<path class="st8" d="M122.2,243.6l-10.6-0.3l-5.2-14.8l-4.3-10.1l4.2-27.2c3.5,10.4,6.8,20.8,9.9,31.3
				C118.3,229.5,120.3,236.5,122.2,243.6z"/>
		</g>
		<g>
			<path class="st10" d="M47.5,335.1c0,0,0.1,0.3,0.4,0.8c1,1.7,4.3,5.2,13.2,2.5c0.3-0.1,0.6-0.2,0.8-0.2c1.9-0.5,3.4-0.6,4.8-0.5
				c5.2,0.4,8.4,3.7,18.9,0.3c9.5-3.1,12.1-0.7,16.6,0.5c0.9,0.2,1.9,0.4,3,0.5c0.5,0,1.1,0,1.6,0c4.2-0.2,8.1-2.6,10.5-4.4
				c1.4-1,2.2-1.8,2.2-1.8c-0.2-0.8-0.5-1.6-0.7-2.5c-0.9-3.4-1.9-7.6-2.8-12.2c-0.3-1.4-0.6-2.8-0.9-4.2c-0.7-3.5-1.4-7.1-2.1-10.7
				l0,0c0,0,0,0,0-0.1c-0.3-1.5-0.5-3-0.8-4.5c0-0.1,0-0.1,0-0.2c-0.9-4.8-1.7-9.4-2.4-13.7c-0.3-1.6-0.5-3.2-0.8-4.6
				c-1.3-8-2.2-13.6-2.2-13.6l-25.5,1.8l-25.5-0.1c0,0-0.2,2.8-0.7,7.4c-0.1,1.4-0.3,3-0.5,4.8c-0.4,4.6-1,10.1-1.6,15.9
				c-0.2,1.5-0.3,3.1-0.5,4.6c-1.2,10.9-2.7,22.3-4.2,30.3C48,332.6,47.7,333.9,47.5,335.1z"/>
			<g>
				<path class="st5" d="M101.2,274.4c0,1.3,1.2,2.4,2.5,2.3c1.3,0,2.4-1.2,2.3-2.5c0-1.3-1.2-2.4-2.5-2.3
					C102.2,271.9,101.2,273,101.2,274.4z"/>
				<path class="st5" d="M95.5,283.9c0,1.3,1.2,2.4,2.5,2.3c1.3,0,2.4-1.2,2.3-2.5c0-1.3-1.2-2.4-2.5-2.3
					C96.5,281.4,95.5,282.5,95.5,283.9z"/>
				<path class="st5" d="M83.7,279.4c0,1.3,1.2,2.4,2.5,2.3c1.3,0,2.4-1.2,2.3-2.5c0-1.3-1.2-2.4-2.5-2.3
					C84.7,277,83.6,278.1,83.7,279.4z"/>
				<path class="st5" d="M102.6,293.5c0,1.3,1.2,2.4,2.5,2.3c1.3,0,2.4-1.2,2.3-2.5c0-1.3-1.2-2.4-2.5-2.3
					C103.6,291.1,102.6,292.2,102.6,293.5z"/>
				<path class="st5" d="M88,293c0,1.3,1.2,2.4,2.5,2.3c1.3,0,2.4-1.2,2.3-2.5c0-1.3-1.2-2.4-2.5-2.3C89,290.5,87.9,291.6,88,293z"
					/>
				<path class="st5" d="M107.5,282.4c0,1.2,1,2.2,2.3,2.3c-0.3-1.6-0.5-3.2-0.8-4.6C108.1,280.5,107.5,281.4,107.5,282.4z"/>
				<path class="st5" d="M64.6,307.8c0,1.3,1.2,2.4,2.5,2.3c1.3,0,2.4-1.2,2.3-2.5c0-1.3-1.2-2.4-2.5-2.3
					C65.6,305.4,64.5,306.5,64.6,307.8z"/>
				<path class="st5" d="M65.3,294.7c0,1.3,1.2,2.4,2.5,2.3c1.3,0,2.4-1.2,2.3-2.5c0-1.3-1.2-2.4-2.5-2.3
					C66.3,292.3,65.2,293.4,65.3,294.7z"/>
				<path class="st5" d="M52.5,300.8c0.3,0.1,0.6,0.2,0.9,0.2c1.3,0,2.4-1.2,2.3-2.5c0-1.3-1.2-2.4-2.5-2.3c-0.1,0-0.2,0-0.3,0
					C52.8,297.7,52.7,299.3,52.5,300.8z"/>
				<path class="st5" d="M63.6,317.5c0,1.3,1.2,2.4,2.5,2.3c1.3,0,2.4-1.2,2.3-2.5c0-1.3-1.2-2.4-2.5-2.3
					C64.6,315,63.6,316.1,63.6,317.5z"/>
				<path class="st5" d="M53.2,314c0,1.3,1.2,2.4,2.5,2.3c1.3,0,2.4-1.2,2.3-2.5c0-1.3-1.2-2.4-2.5-2.3S53.2,312.6,53.2,314z"/>
				<path class="st5" d="M74.4,322c0,1.3,1.2,2.4,2.5,2.3c1.3,0,2.4-1.2,2.3-2.5c0-1.3-1.2-2.4-2.5-2.3
					C75.4,319.6,74.4,320.7,74.4,322z"/>
				<path class="st5" d="M77.6,332.6c0,1.3,1.2,2.4,2.5,2.3c1.3,0,2.4-1.2,2.3-2.5c0-1.3-1.2-2.4-2.5-2.3
					C78.6,330.2,77.6,331.3,77.6,332.6z"/>
				<path class="st5" d="M102.1,338.1c0,0.1,0,0.3,0,0.4c0.9,0.2,1.9,0.4,3,0.5c0.5,0,1.1,0,1.6,0c0.2-0.3,0.2-0.7,0.2-1.1
					c0-1.3-1.2-2.4-2.5-2.3C103.1,335.6,102.1,336.8,102.1,338.1z"/>
				<path class="st5" d="M61.9,338.1c0,0,0,0.1,0,0.1c1.9-0.5,3.4-0.6,4.8-0.5c-0.1-1.2-1.2-2.2-2.5-2.1
					C62.9,335.6,61.8,336.7,61.9,338.1z"/>
				<path class="st5" d="M53.1,326.3c0,1.3,1.2,2.4,2.5,2.3c1.3,0,2.4-1.2,2.3-2.5c0-1.3-1.2-2.4-2.5-2.3
					C54.1,323.9,53.1,325,53.1,326.3z"/>
				<path class="st5" d="M47.5,335.1c0,0,0.1,0.3,0.4,0.8c0.1,0,0.2,0,0.4,0c1.3,0,2.4-1.2,2.3-2.5c0-1.2-1-2.2-2.3-2.3
					C48,332.6,47.7,333.9,47.5,335.1z"/>
				<path class="st5" d="M104.7,308.6c0,1.3,1.2,2.4,2.5,2.3c1.3,0,2.4-1.2,2.3-2.5c0-1.3-1.2-2.4-2.5-2.3
					C105.7,306.2,104.7,307.3,104.7,308.6z"/>
				<path class="st5" d="M110.8,300.8c0,1.2,1,2.2,2.2,2.3c0,0,0,0,0-0.1c-0.3-1.5-0.5-3-0.8-4.5C111.3,299,110.8,299.9,110.8,300.8
					z"/>
				<path class="st5" d="M114.1,315.8c0,1.1,0.8,2,1.8,2.2c-0.3-1.4-0.6-2.8-0.9-4.2C114.4,314.3,114.1,315,114.1,315.8z"/>
				<path class="st5" d="M99,317.3c0,1.3,1.2,2.4,2.5,2.3c1.3,0,2.4-1.2,2.3-2.5c0-1.3-1.2-2.4-2.5-2.3C100,314.9,99,316,99,317.3z"
					/>
				<path class="st5" d="M86.3,315.9c0,1.3,1.2,2.4,2.5,2.3c1.3,0,2.4-1.2,2.3-2.5c0-1.3-1.2-2.4-2.5-2.3
					C87.3,313.4,86.3,314.5,86.3,315.9z"/>
				<path class="st5" d="M95,303.8c0,1.3,1.2,2.4,2.5,2.3c1.3,0,2.4-1.2,2.3-2.5c0-1.3-1.2-2.4-2.5-2.3
					C96,301.3,94.9,302.4,95,303.8z"/>
				<path class="st5" d="M82,301.8c0,1.3,1.2,2.4,2.5,2.3c1.3,0,2.4-1.2,2.3-2.5c0-1.3-1.2-2.4-2.5-2.3
					C83,299.3,81.9,300.5,82,301.8z"/>
				<path class="st5" d="M75.8,289.3c0,1.3,1.2,2.4,2.5,2.3c1.3,0,2.4-1.2,2.3-2.5c0-1.3-1.2-2.4-2.5-2.3
					C76.8,286.9,75.7,288,75.8,289.3z"/>
				<path class="st5" d="M54.7,280.3c0.2,0,0.3,0,0.5,0c1.3,0,2.4-1.2,2.3-2.5c0-1.3-1.1-2.3-2.4-2.3C55,277,54.8,278.6,54.7,280.3z
					"/>
				<path class="st5" d="M67.2,280c0,1.3,1.2,2.4,2.5,2.3s2.4-1.2,2.3-2.5c0-1.3-1.2-2.4-2.5-2.3C68.2,277.5,67.1,278.6,67.2,280z"
					/>
				<path class="st5" d="M58.7,288.8c0,1.3,1.2,2.4,2.5,2.3c1.3,0,2.4-1.2,2.3-2.5c0-1.3-1.2-2.4-2.5-2.3
					C59.7,286.4,58.6,287.5,58.7,288.8z"/>
				<path class="st5" d="M74,309.6c0,1.3,1.2,2.4,2.5,2.3c1.3,0,2.4-1.2,2.3-2.5c0-1.3-1.2-2.4-2.5-2.3C75,307.2,74,308.3,74,309.6z
					"/>
				<path class="st5" d="M107.7,325.1c0,1.3,1.2,2.4,2.5,2.3c1.3,0,2.4-1.2,2.3-2.5c0-1.3-1.2-2.4-2.5-2.3
					C108.6,322.6,107.6,323.8,107.7,325.1z"/>
				<path class="st5" d="M91.5,327.5c0,1.3,1.2,2.4,2.5,2.3c1.3,0,2.4-1.2,2.3-2.5c0-1.3-1.2-2.4-2.5-2.3
					C92.5,325,91.4,326.2,91.5,327.5z"/>
				<path class="st5" d="M116.2,332.7c0,0.8,0.4,1.5,1,1.9c1.4-1,2.2-1.8,2.2-1.8c-0.2-0.8-0.5-1.6-0.7-2.5c-0.1,0-0.1,0-0.2,0
					C117.2,330.3,116.1,331.4,116.2,332.7z"/>
			</g>
			<path class="st7" d="M54.3,268.9c13.7,8.3,38.4,6.8,53.6-1.7c-1.8-9.2-4-18.3-4-30.6c0-1.3,0-2.7,0-4c0-1.2,0.1-2.3,0.1-3.4
				c0.7-20.5,3.6-37.3,1.8-39.4c-0.8-0.9-2.1-1.9-3.6-2.9c-0.6-0.4-1.3-0.8-2-1.2c-1.6-0.9-3.5-1.9-5.3-2.8
				c-4.3-2.1-8.7-4.1-10.9-5.5c-2.1,1-3.8,1.6-5.7,1.6c0,0-0.1,0-0.2,0c0,0-0.1,0-0.2,0c-1.8,0.1-3.6-0.4-5.8-1.3
				c-2,1.4-5.7,3.4-9.5,5.6c-2.8,1.6-5.6,3.3-7.8,4.9c-1.4,1.1-2.6,2.1-3.3,3c-0.8,1.1-0.3,5.8,0.6,12.7c0.9,6.8,2.3,15.8,3.3,25.7
				c0.3,2.8,0.5,5.6,0.7,8.4C57.1,250.3,55.5,259.6,54.3,268.9z"/>
			<g>
				<path class="st14" d="M63.4,258.9C63.4,258.9,63.4,258.9,63.4,258.9c10.8-0.4,19.9-5.6,25.6-9.9c6.2-4.7,9.9-9.3,9.9-9.4
					c0.2-0.2,0.1-0.6-0.1-0.7c-0.2-0.2-0.6-0.1-0.7,0.1c0,0-3.7,4.6-9.7,9.2c-5.6,4.2-14.5,9.3-25,9.7c-0.3,0-0.5,0.3-0.5,0.5
					C62.9,258.7,63.1,258.9,63.4,258.9z"/>
			</g>
			<g>
				<path class="st14" d="M74.8,262.2c9.4-0.3,18.6-6,19-6.2c0.2-0.2,0.3-0.5,0.2-0.7c-0.2-0.2-0.5-0.3-0.7-0.2
					c-0.1,0.1-10.9,6.7-20.7,6c-0.3,0-0.5,0.2-0.6,0.5c0,0.3,0.2,0.5,0.5,0.6C73.2,262.3,74,262.3,74.8,262.2z"/>
			</g>
			<g>
				<g>
					<g>
						<path class="st14" d="M81.2,203.7c0.2,0,0.5-0.2,0.5-0.4c0-0.3-0.1-0.6-0.4-0.6c-13.3-2.1-17.5-10.4-17.6-10.5
							c-0.1-0.3-0.4-0.4-0.7-0.2c-0.3,0.1-0.4,0.4-0.2,0.7C62.9,193,67.3,201.6,81.2,203.7C81.1,203.7,81.2,203.8,81.2,203.7z"/>
					</g>
				</g>
			</g>
			<path class="st8" d="M62.8,183.3c2.8,5.9,9.2,13.8,17.6,12.1c8.1-1.7,12-8,14.6-12.5c-4.3-2.1-8.7-4.1-10.9-5.5
				c-2.1,1-3.8,1.6-5.7,1.6c-0.1,0-0.1,0-0.2,0c0,0-0.1,0-0.2,0c-1.8,0.1-3.6-0.4-5.8-1.3C70.3,179.1,66.6,181.1,62.8,183.3z"/>
			<g>
				<path class="st9" d="M78.6,187.5c-8.5,0.3-10.3-7.8-10.3-7.9c-0.1-0.3,0.1-0.5,0.4-0.6c0.3-0.1,0.5,0.1,0.6,0.4
					c0.1,0.3,1.6,7.4,9.4,7.1c7.7-0.3,9.1-7,9.2-7.3c0.1-0.3,0.3-0.4,0.6-0.4c0.3,0.1,0.4,0.3,0.4,0.6
					C88.7,179.5,87.2,187.2,78.6,187.5z"/>
			</g>
		</g>
		<path class="st5" d="M78,179.2L78,179.2c0.1,0,0.1,0,0.2,0C78.1,179.2,78.1,179.2,78,179.2z"/>
		<g>
			<path class="st5" d="M63.2,136.4c0,0-5.8,11.5-7,21.7c-1.4,11.9,1.8,20.5,10.9,19.7c9.1-0.8,25.6,1.4,30.5-5.3
				C103.3,164.9,63.2,136.4,63.2,136.4z"/>
			<g>
				<g>
					<path class="st11" d="M90.7,153.5c0,0,2.4-3.4,4.4-0.7c2,2.7-0.4,11-5.1,9.2L90.7,153.5z"/>
					<g>
						<path class="st12" d="M90.9,159.4c0.2,0,0.3-0.1,0.4-0.3c0.6-2.6,3.2-3.7,3.3-3.7c0.2-0.1,0.3-0.3,0.2-0.5
							c-0.1-0.2-0.3-0.3-0.5-0.2c-0.1,0.1-3,1.3-3.7,4.2c-0.1,0.2,0.1,0.4,0.3,0.5C90.8,159.4,90.9,159.4,90.9,159.4z"/>
					</g>
					<g>
						<path class="st12" d="M93.5,158c0.1,0,0.1,0,0.2-0.1c0.2-0.1,0.2-0.4,0.1-0.5c0,0-0.5-0.7-1.5-1.1c-0.2-0.1-0.4,0-0.5,0.2
							c-0.1,0.2,0,0.4,0.2,0.5c0.8,0.3,1.1,0.8,1.2,0.9C93.3,158,93.4,158,93.5,158z"/>
					</g>
				</g>
				<g>
					<path class="st11" d="M64.7,154.4c0,0-2.6-3.3-4.4-0.4c-1.8,2.8,1.1,11,5.7,8.8L64.7,154.4z"/>
					<g>
						<path class="st12" d="M64.8,160.2c-0.2,0-0.3-0.1-0.4-0.3c-0.8-2.5-3.5-3.5-3.5-3.5c-0.2-0.1-0.3-0.3-0.2-0.5
							c0.1-0.2,0.3-0.3,0.5-0.2c0.1,0,3.1,1.1,4,4c0.1,0.2,0,0.4-0.3,0.5C64.9,160.2,64.9,160.2,64.8,160.2z"/>
					</g>
					<g>
						<g>
							<path class="st12" d="M62.1,159c-0.1,0-0.1,0-0.2-0.1c-0.2-0.1-0.2-0.3-0.1-0.5c0,0,0.5-0.8,1.4-1.2c0.2-0.1,0.4,0,0.5,0.2
								c0.1,0.2,0,0.4-0.2,0.5c-0.7,0.4-1.1,0.9-1.1,0.9C62.4,159,62.3,159,62.1,159z"/>
						</g>
					</g>
				</g>
				<path class="st8" d="M72,169.5l0.3,8.2c0,0,2.6,4.1,5.9,4.3c3.3,0.2,6.1-3.8,6.1-3.8l-0.3-8.5L72,169.5z"/>
				<path class="st11" d="M72,169.5l0.1,3.6c2.3,2.4,6.2,3.1,12,2.1l-0.2-5.5L72,169.5z"/>
				<path class="st8" d="M62.7,148.8c0.3,3.2,0.7,7.1,1.4,10.3c0.2,0.8,0.4,1.5,0.6,2.2c1.9,6,6.6,16.2,18.5,11.5
					c5.3-2.1,7.5-8.1,8.4-14.1c0.6-4.1,0.6-8.3,0.4-11.2c-0.2-3-1.9-5.7-4.6-7.1c-7.2-3.8-14.7-2.1-19.6,0
					C64.5,141.7,62.4,145.2,62.7,148.8z"/>
				<path class="st5" d="M83,154.2c0,0.9,0.5,1.6,1.1,1.5c0.6,0,1-0.7,1-1.6c0-0.9-0.5-1.6-1.1-1.5C83.4,152.7,83,153.4,83,154.2z"
					/>
				<path class="st5" d="M70.6,154.7c0,0.9,0.5,1.6,1.1,1.5c0.6,0,1-0.7,1-1.6c0-0.9-0.5-1.6-1.1-1.5
					C71,153.1,70.6,153.8,70.6,154.7z"/>
				<path class="st5" d="M85.8,149.4c-0.8-0.2-2.5-0.6-4.3-0.5c-0.5,0-0.8,0.4-0.7,0.9l0,0c0.1,0.4,0.4,0.6,0.8,0.6
					c1.2-0.1,4.4,0,5.9,0.5c0-0.3-0.1-0.5-0.4-0.8C86.8,149.8,86.3,149.6,85.8,149.4z"/>
				<path class="st5" d="M69.6,150c0.8-0.3,2.5-0.7,4.3-0.8c0.5,0,0.8,0.4,0.8,0.9l0,0c-0.1,0.4-0.4,0.6-0.7,0.6
					c-1.2,0-4.4,0.3-5.9,0.9c0-0.3,0.1-0.5,0.3-0.8C68.7,150.4,69.1,150.2,69.6,150z"/>
				<g>
					<g>
						<path class="st11" d="M77.8,161.6c0.3,0,0.6-0.1,0.8-0.2c0.2-0.1,0.5-0.4,0.5-1c0.1-1.4-0.4-5.9-0.4-6.1
							c0-0.2-0.2-0.4-0.4-0.3c-0.2,0-0.4,0.2-0.3,0.4c0,0,0.5,4.6,0.4,5.9c0,0.2-0.1,0.3-0.2,0.4c-0.4,0.2-1.2,0-1.6-0.1
							c-0.2-0.1-0.4,0-0.5,0.2c-0.1,0.2,0,0.4,0.2,0.5C76.5,161.4,77.1,161.7,77.8,161.6z"/>
					</g>
				</g>
				<path class="st9" d="M82.8,163.9c-0.2,1.5-1.1,4.2-4.4,4.3c-3.3,0.1-4.3-2.3-4.7-4L82.8,163.9z"/>
				<g>
					<path class="st11" d="M78.5,170.5c0.9,0,1.8-0.6,1.8-0.6c0.2-0.1,0.2-0.4,0.1-0.5c-0.1-0.2-0.4-0.2-0.5-0.1l0,0
						c0,0-0.7,0.4-1.4,0.5c-0.8,0-1.5-0.4-1.5-0.4c-0.2-0.1-0.4,0-0.5,0.1c-0.1,0.2,0,0.4,0.1,0.5C76.6,170.1,77.5,170.6,78.5,170.5
						z"/>
				</g>
			</g>
			<path class="st5" d="M61.1,148.2c0.1,0.3,0.5,0.6,1,0.7c0,0.9,0.1,1.9,0.2,2.9c0.7,5.6,2.1,6.5,2.4,5.1c0.2-0.9,0-6.2-0.2-7.9
				c1.1-0.1,2-0.3,2-0.3l1.1-5.5l0.6,5.4c2,0.6,6.5-0.6,6.5-0.6l1.4-5.4l1.1,5.1c3,1.3,6.6,0.3,6.6,0.3l0.7-5.6l2.1,5.5
				c0,0,6.3,2,6.3-0.2c0-1.3-1.1-4.9-2-7.8c-1-3.1-3.1-5.6-5.9-7c-7.9-3.9-16-1.4-18.8,0.3C60.5,136.9,61.1,148.2,61.1,148.2z"/>
			<path class="st5" d="M89,136c0,0,5.5,5.9,7.6,16.8c2,10.9,5,19.6-1.8,22.7c-5.6,2.5-8.1-1.9-8.1-4.1c0-2.2,7.4-10.3,2.8-26.9
				C87.9,139.1,89,136,89,136z"/>
			<path class="st9" d="M63,163c0,0.5,0.4,0.9,0.9,0.9c0.5,0,0.9-0.4,0.9-0.9c0-0.5-0.4-0.9-0.9-0.9C63.4,162.1,63,162.5,63,163z"/>
			<g>
				<g>
					<path class="st9" d="M71.5,160.5c-2.7,0.1-4.9-2-5-4.7c-0.1-2.7,2-4.9,4.7-5c2.7-0.1,4.9,2,5,4.7
						C76.3,158.2,74.2,160.4,71.5,160.5z M71.2,151.6c-2.3,0.1-4,2-4,4.2c0.1,2.3,2,4,4.2,4c2.3-0.1,4-2,4-4.2
						C75.4,153.3,73.5,151.5,71.2,151.6z"/>
				</g>
				<g>
					<path class="st9" d="M84.8,160.1c-2.7,0.1-4.9-2-5-4.7c-0.1-2.7,2-4.9,4.7-5c2.7-0.1,4.9,2,5,4.7
						C89.5,157.8,87.4,160,84.8,160.1z M84.5,151.1c-2.3,0.1-4,2-4,4.2s2,4,4.2,4c2.3-0.1,4-2,4-4.2
						C88.6,152.8,86.7,151.1,84.5,151.1z"/>
				</g>
				<g>
					<path class="st9" d="M64.7,152.1c1.7,0.4,2.8,1.4,2.8,1.5c0.2,0.1,0.2,0.4,0,0.5c-0.1,0.1-0.2,0.1-0.3,0.1s-0.2,0-0.3-0.1
						c0,0-0.9-0.8-2.3-1.2L64.7,152.1z"/>
				</g>
				<g>
					<path class="st9" d="M88.4,152.8c0.1-0.1,0.8-0.8,2.3-1.4l0.1,0.9c-1.4,0.6-1.9,1.1-1.9,1.1c-0.1,0-0.1,0.1-0.2,0.1
						c-0.1,0-0.2-0.1-0.3-0.2C88.2,153.2,88.3,153,88.4,152.8z"/>
				</g>
				<g>
					<path class="st9" d="M80,154.3c0,0-0.9-1.2-2.1-1.2c-1.2,0-1.9,1.3-2,1.3l-0.6-0.4c0-0.1,1-1.6,2.6-1.7
						c1.6-0.1,2.7,1.4,2.8,1.5L80,154.3z"/>
				</g>
			</g>
		</g>
		<path class="st8" d="M104,229c0.7-20.5,3.6-37.3,1.8-39.4c-0.8-0.9-2.1-1.9-3.6-2.9C100.9,194.1,97.6,216.4,104,229z"/>
		<path class="st8" d="M52.3,203.9c0.9,6.8,2.3,15.8,3.3,25.7c4.9-13,1.2-34.1-0.6-41.5c-1.4,1.1-2.6,2.1-3.3,3
			C50.8,192.3,51.3,196.9,52.3,203.9z"/>
		<g>
			<path class="st5" d="M146.9,241c-19.9-2.2-42.4-4.7-69.4-3.5c-11.5,0.5-24,3.3-37,8.5c-10.3,4.1-21.1,9.6-32,16.4
				c-3,1.9-5.8,3.7-8.4,5.5v10.1c3.8-2.7,8.1-5.7,12.8-8.6c16.3-10.2,40.9-22.6,65-23.6c26.3-1.1,48.5,1.3,68.1,3.5
				c8.9,1,23.4,2,31.8,2.5v-7.4C169.8,243.7,155.7,242,146.9,241z"/>
		</g>
		<path class="st8" d="M51.7,191.2c0,0-5.4,23.1-4.2,35.7c1.2,12.6-1,15.5,17.2,19c18.8,3.6,27.3,3.7,27.3,3.7l2.1-7
			c0,0-11.6-3.4-23-7.3c-8.7-2.9-11.4-5.7-11.4-5.7L58,209.9C58,209.9,56.6,194.6,51.7,191.2z"/>
		<g>
			<path class="st8" d="M91.5,241.9l1.8,0.1c1.6,0.1,3-0.7,3.8-2.1c0.4-0.6,0.9-1.8,1.2-2.1c0.9-1.1,3.4-2.8,4.3-2.8
				c0.9,0,0.6,1.6-0.1,2.3c-0.7,0.7-1.7,1.5-2.3,2.5c-0.6,1,4,3.4,5.9,4c1.9,0.6,5.4-0.1,5.6,1.5c0.2,1.6-2.4,1.7-2.4,1.7
				s0.6,1.5-1.6,2.5c0,0,0.3,1.5-1.2,2.1c0,0,0,1.8-1.6,2.2c-1.6,0.3-6.7,1.4-16-5.3L91.5,241.9z"/>
		</g>
		<g>
			<path class="st8" d="M121.1,249.9c0,0,0.1-2.3,0.8-5.6c0.4-1.7,1.8-3.2,2.7-1.6c0.7,1.2,0.4,2.6,0.7,3.9c0,0,0.2-0.9,0.5-3.1
				c0.3-2,1.5-2.4,2.2-1.2c0.6,1.1,0.3,1.2,0.3,2.2c0.1,1.4,0.1,3.1,0.1,3.1s-0.2-1.9,0.5-4.5c0.3-1.2,0.6-2.4,2.1-1.4
				c0.8,0.5,0.9,2.7,1.1,5c0,0-0.3-2.7,0.8-4c0.9-1,2-1.2,2.1,0.5c0.2,2.2,0.1,2.9,0.1,4.2c0,1.3-0.9,3.6-2.2,3.7
				c-1.4,0.1-1.9-0.7-2.8-0.4c-0.8,0.3-2.1,0.8-2.9,0.5c-0.8-0.3-1.4-0.2-2.4,0.2C123.9,251.7,121.5,251.2,121.1,249.9z"/>
		</g>
	</g>
</g>
<g id="DESIGNED_BY_FREEPIK">
</g>
</svg>
