<?xml version="1.0" encoding="utf-8"?>
<!-- Generator: Adobe Illustrator 23.0.3, SVG Export Plug-In . SVG Version: 6.00 Build 0)  -->
<svg version="1.1" id="Layer_1" xmlns="http://www.w3.org/2000/svg" xmlns:xlink="http://www.w3.org/1999/xlink" x="0px" y="0px"
	 viewBox="0 0 500 500" style="enable-background:new 0 0 500 500;" xml:space="preserve">
<style type="text/css">
	.st0{fill:#01CB01;}
	.st1{fill:#4D158C;}
	.st2{fill:#FFFFFF;}
</style>
<g>
	<path class="st0" d="M252,206.4c10.3,17.7,20.6,35.4,30.9,53.1c6.1,10.5,12.1,21,18.2,31.4c6,10.3,18,10.2,24-0.1
		c33.1-57.3,66.2-114.6,99.3-171.9c5.7-9.8-0.4-20.4-11.8-20.4c-19.4-0.1-38.8,0-58.1-0.1c-2.5,0-3.4,1-4.3,3.1
		c-8.2,19.2-16.5,38.3-24.8,57.4c-3.5,8-11.8,11-18.8,6.8c-2.8-1.7-4.5-4.2-5.8-7.1c-8.1-18.9-16.4-37.8-24.4-56.7
		c-1.1-2.5-2.2-3.6-5.1-3.5c-12.9,0.2-25.8,0.1-38.6,0c-1.9,0-3.2,0.2-4,2.3c-5.2,12.4-10.6,24.8-15.9,37.1
		c3.2,5.5,6.5,10.9,9.6,16.4C232,171.6,242,189,252,206.4z"/>
	<path class="st1" d="M252,206.4C242,189,232,171.6,222,154.3c-3.2-5.5-6.4-11-9.6-16.4c-3,6.9-6.1,13.7-9,20.6
		c-2.4,5.6-6.2,9-12.5,9c-6.3,0-10.1-3.5-12.5-9.1c-8.1-18.8-16.3-37.5-24.3-56.4c-1.2-2.8-2.6-3.6-5.5-3.5c-19,0.1-38,0-57,0.1
		C80,98.6,74,109.1,79.9,119.2c33,57.2,66.1,114.4,99.1,171.6c4,6.9,10.4,9.4,17,6.8c3.3-1.3,5.4-3.9,7.1-6.9
		c15.7-27.3,31.5-54.5,47.2-81.7C250.8,208.1,251.4,207.2,252,206.4z"/>
	<path class="st2" d="M148.7,376.2c4.5,7.8,8.6,15,12.8,22.2c2.7,4.5,5.6,4.6,8.3,0c8.8-15.2,17.6-30.5,26.4-45.7
		c2.7-4.6,1.2-7.1-4-7.2c-4.4,0-8.8,0.1-13.1-0.1c-2.1-0.1-3.1,0.5-3.9,2.5c-1.8,4.5-3.8,8.9-5.7,13.4c-0.7,1.7-1.6,3.3-3.6,3.3
		c-2.2,0.1-3.2-1.6-3.9-3.4c-1.7-4.1-3.6-8.2-5.3-12.4c-0.3-0.7-0.9-2.6-1.6-2.8c-3.9-1.3-7.7-0.8-10.7-0.6c-1.6,0.1-2.5,0.4-3.1,2
		c-1.7,4.2-3.5,8.3-5.3,12.4c-0.9,2.1-1.4,4.9-4.5,4.8c-3-0.1-3.4-2.9-4.4-5c-1.8-4-3.6-8-5.2-12c-0.7-1.7-1.6-2.2-3.3-2.2
		c-4.9,0.1-9.8,0-14.6,0.1c-3.8,0.1-5.4,2.7-3.5,6.1c9.1,15.9,18.3,31.8,27.6,47.7c2,3.4,5.2,3.3,7.3-0.3
		c3.8-6.3,7.4-12.7,11.1-19.1C147,378.8,147.8,377.7,148.7,376.2z"/>
	<path class="st2" d="M202,401.1c3,0.1,8.9,0.4,11.9-8.4c0.8-2.4,2-4.8,3.1-7.2c0.7-1.6,1.6-2.9,3.5-2.9c1.9,0,2.9,1.3,3.6,2.8
		c1.9,4.3,3.8,8.7,5.6,13.1c0.7,1.8,1.6,2.8,3.8,2.7c4.6-0.2,9.2,0,13.9-0.1c4.7-0.1,6.3-2.8,4-6.9c-8.9-15.6-17.9-31.1-26.9-46.6
		c-2.3-3.9-5.4-3.9-7.7,0c-9.1,15.6-18.1,31.3-27.1,47c-2.1,3.7-0.5,6.4,3.7,6.6C195.8,401.2,198.3,401.1,202,401.1z"/>
	<path class="st2" d="M377.8,344.8c-6.6,0-13.2,0-19.9,0c-4.8,0-6.7,1.9-6.8,6.8c-0.1,2.6-0.1,5.3,0,7.9c0.2,3.7,2.3,5.7,6,5.9
		c2.5,0.1,5,0.2,7.5,0c2.4-0.2,2.9,0.8,2.8,3c-0.1,8.9-0.1,17.7,0,26.6c0,5,2,6.9,7.1,7c2.1,0,4.2,0,6.4,0c5.3-0.1,7.2-1.9,7.2-7.3
		c0.1-8.7,0.1-17.5-0.1-26.2c-0.1-2.5,0.6-3.3,3.1-3.1c2.4,0.2,4.7,0.1,7.1,0c4-0.2,5.9-2.1,6-6.1c0.1-2.7,0.1-5.5,0-8.2
		c-0.1-4.2-2-6.2-6.2-6.2C391.3,344.7,384.6,344.8,377.8,344.8z"/>
	<path class="st2" d="M286.7,386.1c0-2.7-0.2-4.3-0.2-6.6c0-5.2,3.4-9,7.2-13.1c4.2-4.4,7.7-9.5,11.6-14.2c1.3-1.5,2.1-3.1,1.1-5.1
		c-0.9-1.8-2.6-2.2-4.4-2.2c-0.4,0-0.7,0-1.1,0c-4.5,0-9.4-1.1-13.4,0.4c-3.9,1.5-4.9,6.9-7.3,10.4c-2.4,3.5-5.4,3.6-7.7,0
		c-1.8-2.8-3.6-5.7-5.3-8.6c-0.9-1.6-1.9-2.4-3.8-2.3c-4.2,0.2-8.5,0.1-12.7,0c-1.8,0-3.6,0.3-4.5,2.1c-1,1.9-0.3,3.5,1,5.1
		c5.3,6.4,10.5,13,15.9,19.4c1.9,2.3,3,4.6,2.9,7.7c-0.3,5.2-0.1,10.5-0.1,15.7c0.1,4.8,2,6.7,6.9,6.8c2.4,0,4.7,0,7.1,0
		c4.6-0.1,6.5-2.1,6.6-6.7C286.7,392.1,286.7,389.1,286.7,386.1z"/>
	<path class="st2" d="M318.7,373.4c0,7.1,0,14.2,0,21.3c0,5.1,2,7,7,7.1c2.5,0,5,0.1,7.5,0c3.9-0.1,6.2-2.1,6.2-6
		c0.1-15.1,0.1-30.2,0-45.3c0-4-2.2-5.8-6.2-5.8c-2.7-0.1-5.5-0.1-8.2,0c-4.2,0.1-6.2,2-6.2,6.2
		C318.6,358.5,318.7,365.9,318.7,373.4z"/>
</g>
</svg>
