<?xml version="1.0" encoding="utf-8"?>
<!-- Generator: Adobe Illustrator 23.0.3, SVG Export Plug-In . SVG Version: 6.00 Build 0)  -->
<svg version="1.1" id="Layer_1" xmlns="http://www.w3.org/2000/svg" xmlns:xlink="http://www.w3.org/1999/xlink" x="0px" y="0px"
	 viewBox="0 0 123.1 30" style="enable-background:new 0 0 123.1 30;" xml:space="preserve">
<style type="text/css">
	.st0{display:none;}
	.st1{display:inline;fill:#01CB01;}
	.st2{display:inline;fill:#4D158C;}
	.st3{display:none;fill:#3302CB;}
	.st4{fill:#FFFFFF;}
	.st5{fill:url(#SVGID_1_);}
	.st6{fill:url(#SVGID_2_);}
</style>
<g class="st0">
	<path class="st1" d="M23.6,15.8c1,1.8,2,3.5,3.1,5.3c0.6,1,1.2,2.1,1.8,3.1c0.6,1,1.8,1,2.4,0c3.3-5.7,6.6-11.4,9.9-17.1
		c0.6-1,0-2-1.2-2c-1.9,0-3.9,0-5.8,0c-0.2,0-0.3,0.1-0.4,0.3c-0.8,1.9-1.6,3.8-2.5,5.7c-0.3,0.8-1.2,1.1-1.9,0.7
		c-0.3-0.2-0.4-0.4-0.6-0.7c-0.8-1.9-1.6-3.8-2.4-5.6C25.9,5.1,25.8,5,25.5,5c-1.3,0-2.6,0-3.8,0c-0.2,0-0.3,0-0.4,0.2
		c-0.5,1.2-1.1,2.5-1.6,3.7c0.3,0.5,0.6,1.1,1,1.6C21.6,12.3,22.6,14.1,23.6,15.8z"/>
	<path class="st2" d="M23.6,15.8c-1-1.7-2-3.5-3-5.2c-0.3-0.5-0.6-1.1-1-1.6c-0.3,0.7-0.6,1.4-0.9,2.1c-0.2,0.6-0.6,0.9-1.2,0.9
		c-0.6,0-1-0.4-1.2-0.9c-0.8-1.9-1.6-3.7-2.4-5.6C13.8,5.1,13.6,5,13.3,5c-1.9,0-3.8,0-5.7,0c-1.2,0-1.8,1-1.2,2.1
		c3.3,5.7,6.6,11.4,9.9,17.1c0.4,0.7,1,0.9,1.7,0.7c0.3-0.1,0.5-0.4,0.7-0.7c1.6-2.7,3.1-5.4,4.7-8.1C23.5,16,23.6,15.9,23.6,15.8z"
		/>
</g>
<rect class="st3" width="123.1" height="30"/>
<g>
	<path class="st4" d="M67.3,15.5c0.8,1.4,1.6,2.7,2.3,4c0.5,0.8,1,0.8,1.5,0c1.6-2.8,3.2-5.5,4.8-8.3c0.5-0.8,0.2-1.3-0.7-1.3
		c-0.8,0-1.6,0-2.4,0c-0.4,0-0.6,0.1-0.7,0.5c-0.3,0.8-0.7,1.6-1,2.4c-0.1,0.3-0.3,0.6-0.7,0.6c-0.4,0-0.6-0.3-0.7-0.6
		c-0.3-0.7-0.6-1.5-1-2.2c-0.1-0.1-0.2-0.5-0.3-0.5c-0.7-0.2-1.4-0.1-1.9-0.1c-0.3,0-0.4,0.1-0.6,0.4c-0.3,0.8-0.6,1.5-1,2.2
		c-0.2,0.4-0.3,0.9-0.8,0.9c-0.5,0-0.6-0.5-0.8-0.9c-0.3-0.7-0.6-1.4-0.9-2.2c-0.1-0.3-0.3-0.4-0.6-0.4c-0.9,0-1.8,0-2.6,0
		c-0.7,0-1,0.5-0.6,1.1c1.6,2.9,3.3,5.7,5,8.6c0.4,0.6,0.9,0.6,1.3,0c0.7-1.1,1.3-2.3,2-3.5C67,16,67.2,15.8,67.3,15.5z"/>
	<path class="st4" d="M77,20c0.5,0,1.6,0.1,2.2-1.5c0.2-0.4,0.4-0.9,0.6-1.3c0.1-0.3,0.3-0.5,0.6-0.5c0.3,0,0.5,0.2,0.6,0.5
		c0.3,0.8,0.7,1.6,1,2.4c0.1,0.3,0.3,0.5,0.7,0.5c0.8,0,1.7,0,2.5,0c0.9,0,1.1-0.5,0.7-1.2c-1.6-2.8-3.2-5.6-4.9-8.4
		c-0.4-0.7-1-0.7-1.4,0c-1.6,2.8-3.3,5.7-4.9,8.5c-0.4,0.7-0.1,1.2,0.7,1.2C75.8,20,76.3,20,77,20z"/>
	<path class="st4" d="M108.7,9.9c-1.2,0-2.4,0-3.6,0c-0.9,0-1.2,0.3-1.2,1.2c0,0.5,0,0.9,0,1.4c0,0.7,0.4,1,1.1,1.1
		c0.5,0,0.9,0,1.4,0c0.4,0,0.5,0.1,0.5,0.5c0,1.6,0,3.2,0,4.8c0,0.9,0.4,1.3,1.3,1.3c0.4,0,0.8,0,1.2,0c1,0,1.3-0.3,1.3-1.3
		c0-1.6,0-3.2,0-4.7c0-0.5,0.1-0.6,0.6-0.6c0.4,0,0.9,0,1.3,0c0.7,0,1.1-0.4,1.1-1.1c0-0.5,0-1,0-1.5c0-0.8-0.4-1.1-1.1-1.1
		C111.2,9.8,110,9.9,108.7,9.9z"/>
	<path class="st4" d="M92.3,17.3c0-0.5,0-0.8,0-1.2c0-0.9,0.6-1.6,1.3-2.4c0.8-0.8,1.4-1.7,2.1-2.6c0.2-0.3,0.4-0.6,0.2-0.9
		C95.7,10,95.4,9.9,95,9.9c-0.1,0-0.1,0-0.2,0c-0.8,0-1.7-0.2-2.4,0.1c-0.7,0.3-0.9,1.2-1.3,1.9c-0.4,0.6-1,0.6-1.4,0
		c-0.3-0.5-0.7-1-0.9-1.6c-0.2-0.3-0.3-0.4-0.7-0.4c-0.8,0-1.5,0-2.3,0c-0.3,0-0.6,0.1-0.8,0.4c-0.2,0.3,0,0.6,0.2,0.9
		c1,1.2,1.9,2.4,2.9,3.5c0.4,0.4,0.5,0.8,0.5,1.4c0,0.9,0,1.9,0,2.8c0,0.9,0.4,1.2,1.2,1.2c0.4,0,0.9,0,1.3,0c0.8,0,1.2-0.4,1.2-1.2
		C92.3,18.4,92.3,17.9,92.3,17.3z"/>
	<path class="st4" d="M98.1,15c0,1.3,0,2.6,0,3.9c0,0.9,0.4,1.3,1.3,1.3c0.5,0,0.9,0,1.4,0c0.7,0,1.1-0.4,1.1-1.1c0-2.7,0-5.5,0-8.2
		c0-0.7-0.4-1-1.1-1.1c-0.5,0-1,0-1.5,0c-0.8,0-1.1,0.4-1.1,1.1C98,12.3,98.1,13.7,98.1,15z"/>
</g>
<g>
	<g>
		<linearGradient id="SVGID_1_" gradientUnits="userSpaceOnUse" x1="22.6309" y1="3.7507" x2="37.2797" y2="17.4109">
			<stop  offset="0" style="stop-color:#FFFFFF"/>
			<stop  offset="1" style="stop-color:#BCBEC0"/>
		</linearGradient>
		<path class="st5" d="M23.6,15.8c1,1.8,2,3.5,3.1,5.3c0.6,1,1.2,2.1,1.8,3.1c0.6,1,1.8,1,2.4,0c3.3-5.7,6.6-11.4,9.9-17.1
			c0.6-1,0-2-1.2-2c-1.9,0-3.9,0-5.8,0c-0.2,0-0.3,0.1-0.4,0.3c-0.8,1.9-1.6,3.8-2.5,5.7c-0.3,0.8-1.2,1.1-1.9,0.7
			c-0.3-0.2-0.4-0.4-0.6-0.7c-0.8-1.9-1.6-3.8-2.4-5.6C25.9,5.1,25.8,5,25.5,5c-1.3,0-2.6,0-3.8,0c-0.2,0-0.3,0-0.4,0.2
			c-0.5,1.2-1.1,2.5-1.6,3.7c0.3,0.5,0.6,1.1,1,1.6C21.6,12.3,22.6,14.1,23.6,15.8z"/>
		<g>
			<linearGradient id="SVGID_2_" gradientUnits="userSpaceOnUse" x1="10.5844" y1="15.9256" x2="21.3407" y2="10.9099">
				<stop  offset="0" style="stop-color:#FFFFFF"/>
				<stop  offset="0.4017" style="stop-color:#FDFDFD"/>
				<stop  offset="0.5984" style="stop-color:#F5F5F6"/>
				<stop  offset="0.7505" style="stop-color:#E8E9E9"/>
				<stop  offset="0.8791" style="stop-color:#D6D7D8"/>
				<stop  offset="0.9928" style="stop-color:#BEC0C2"/>
				<stop  offset="1" style="stop-color:#BCBEC0"/>
			</linearGradient>
			<path class="st6" d="M23.6,15.8c-1-1.7-2-3.5-3-5.2c-0.3-0.5-0.6-1.1-1-1.6c-0.3,0.7-0.6,1.4-0.9,2.1c-0.2,0.6-0.6,0.9-1.2,0.9
				c-0.6,0-1-0.4-1.2-0.9c-0.8-1.9-1.6-3.7-2.4-5.6C13.8,5.1,13.6,5,13.3,5c-1.9,0-3.8,0-5.7,0c-1.2,0-1.8,1-1.2,2.1
				c3.3,5.7,6.6,11.4,9.9,17.1c0.4,0.7,1,0.9,1.7,0.7c0.3-0.1,0.5-0.4,0.7-0.7c1.6-2.7,3.1-5.4,4.7-8.1C23.5,16,23.6,15.9,23.6,15.8
				z"/>
		</g>
	</g>
</g>
</svg>
